# Blender v2.83.5 OBJ File: 'ChessSet.blend'
# www.blender.org
v -1.780913 -0.000000 0.379471
v -1.938735 0.773124 0.106114
v -2.219087 -0.000000 0.379471
v -2.061265 0.773124 0.106114
v -1.780913 0.090078 0.379471
v -2.219087 0.090078 0.379471
v -1.795728 0.149978 0.353810
v -2.204272 0.149978 0.353810
v -1.820596 0.231832 0.310737
v -2.179404 0.231832 0.310737
v -1.835415 0.283491 0.285070
v -2.164585 0.283491 0.285070
v -1.874664 0.311650 0.217088
v -2.125336 0.311650 0.217088
v -1.834116 0.180315 0.287319
v -2.165884 0.180315 0.287319
v -1.890495 0.841534 0.189669
v -2.109505 0.841534 0.189669
v -1.871190 0.800114 0.223105
v -1.890677 0.773124 0.189353
v -2.128810 0.800114 0.223105
v -2.109323 0.773124 0.189353
v -1.925737 0.485132 0.128628
v -2.074263 0.485132 0.128628
v -1.988315 1.388226 0.020233
v -1.894665 1.171507 0.182439
v -1.878371 1.060030 0.210662
v -1.894665 0.948553 0.182439
v -1.939183 0.901659 0.105331
v -2.011678 1.388226 0.020233
v -2.105328 1.171507 0.182439
v -2.121622 1.060030 0.210662
v -2.105328 0.948553 0.182439
v -2.060809 0.901659 0.105331
v -2.438175 -0.000000 -0.000000
v -2.122530 0.773124 0.000000
v -1.561825 0.000000 0.000000
v -1.877471 0.773124 0.000000
v -1.780913 0.000000 -0.379471
v -1.938735 0.773124 -0.106114
v -2.219087 0.000000 -0.379471
v -2.061265 0.773124 -0.106114
v -2.438175 0.090078 0.000000
v -1.561825 0.090078 0.000000
v -1.780913 0.090078 -0.379471
v -2.219087 0.090078 -0.379471
v -2.408544 0.149978 0.000000
v -1.591456 0.149978 0.000000
v -1.795728 0.149978 -0.353810
v -2.204272 0.149978 -0.353810
v -2.358808 0.231832 0.000000
v -1.641192 0.231832 0.000000
v -1.820596 0.231832 -0.310737
v -2.179404 0.231832 -0.310737
v -2.329170 0.283491 0.000000
v -1.670830 0.283491 0.000000
v -1.835415 0.283491 -0.285070
v -2.164585 0.283491 -0.285070
v -2.250672 0.311650 0.000000
v -1.749328 0.311650 0.000000
v -1.874664 0.311650 -0.217088
v -2.125336 0.311650 -0.217088
v -1.668232 0.180315 0.000000
v -1.834116 0.180315 -0.287319
v -2.165884 0.180315 -0.287319
v -2.331768 0.180315 0.000000
v -2.219010 0.841534 0.000000
v -1.780990 0.841534 0.000000
v -1.890495 0.841534 -0.189669
v -2.109505 0.841534 -0.189669
v -2.121171 0.901742 0.000000
v -2.218646 0.773124 0.000000
v -2.257619 0.800114 0.000000
v -1.742381 0.800114 0.000000
v -1.781354 0.773124 0.000000
v -1.871190 0.800114 -0.223105
v -1.890677 0.773124 -0.189353
v -2.128810 0.800114 -0.223105
v -2.109323 0.773124 -0.189353
v -2.148526 0.485132 0.000000
v -1.851474 0.485132 0.000000
v -1.925737 0.485132 -0.128628
v -2.074263 0.485132 -0.128628
v -2.023359 1.388226 0.000000
v -2.210659 1.171507 0.000000
v -2.243248 1.060030 0.000000
v -2.210659 0.948553 0.000000
v -1.976634 1.388226 0.000000
v -1.789334 1.171507 0.000000
v -1.756745 1.060030 0.000000
v -1.789334 0.948553 0.000000
v -1.878371 0.901659 0.000000
v -1.988315 1.388226 -0.020233
v -1.894665 1.171507 -0.182439
v -1.878371 1.060030 -0.210662
v -1.894665 0.948553 -0.182439
v -1.939183 0.901659 -0.105331
v -2.011678 1.388226 -0.020233
v -2.105328 1.171507 -0.182439
v -2.121622 1.060030 -0.210662
v -2.105328 0.948553 -0.182439
v -2.060809 0.901659 -0.105331
v -2.000000 0.000000 0.000000
v -2.164620 0.851127 0.000000
v -1.835132 0.851102 0.000000
v -1.917562 0.851102 0.142772
v -2.082420 0.851102 0.142772
v -1.917562 0.851102 -0.142772
v -2.082420 0.851102 -0.142772
v -2.164436 0.889064 0.000000
v -1.835006 0.888980 0.000000
v -1.917514 0.888980 0.142909
v -2.082531 0.888980 0.142909
v -1.917514 0.888980 -0.142909
v -2.082531 0.888980 -0.142909
v -1.907661 0.875798 0.159962
v -2.092369 0.875798 0.159962
v -1.907661 0.875798 -0.159962
v -2.092369 0.875798 -0.159962
v -2.184257 0.875878 0.000000
v -1.815307 0.875798 0.000000
v -2.058152 1.472474 -0.000209
v -2.058152 1.404963 -0.000209
v -1.999686 1.371207 -0.000209
v -2.028919 1.472474 -0.050843
v -2.028919 1.404963 -0.050843
v -1.970452 1.472474 -0.050843
v -1.970452 1.404963 -0.050843
v -1.941219 1.472474 -0.000209
v -1.941219 1.404963 -0.000209
v -1.999686 1.506230 -0.000209
v -1.970452 1.472474 0.050424
v -1.970452 1.404963 0.050424
v -2.028919 1.472474 0.050424
v -2.028919 1.404963 0.050424
v -1.941490 1.279866 0.101336
v -2.058503 1.279866 0.101336
v -1.918078 1.225687 0.141887
v -1.842000 1.171507 0.091220
v -2.081915 1.225687 0.141887
v -2.157993 1.171507 0.091219
v -1.799372 1.115769 -0.045610
v -2.200621 1.115769 -0.045610
v -2.212842 1.060030 -0.052666
v -1.787151 1.060030 -0.052666
vt 0.477626 0.382509
vt 0.587136 0.511680
vt 0.502230 0.595329
vt 0.374706 0.483907
vt 0.477626 0.382510
vt 0.587135 0.511680
vt 0.502229 0.595330
vt 0.374706 0.483907
vt 0.477625 0.382511
vt 0.587134 0.511682
vt 0.502228 0.595332
vt 0.374705 0.483908
vt 0.327337 0.029231
vt 0.364294 0.066743
vt 0.060664 0.365880
vt 0.023707 0.328367
vt 0.327336 0.029231
vt 0.364293 0.066743
vt 0.060664 0.365879
vt 0.023707 0.328367
vt 0.327337 0.029230
vt 0.364293 0.066743
vt 0.060664 0.365879
vt 0.023707 0.328367
vt 0.380763 0.103994
vt 0.097665 0.382903
vt 0.380763 0.103994
vt 0.097665 0.382903
vt 0.380763 0.103994
vt 0.097666 0.382902
vt 0.384147 0.160637
vt 0.416732 0.174973
vt 0.168099 0.419926
vt 0.154250 0.387131
vt 0.384147 0.160636
vt 0.416733 0.174972
vt 0.168100 0.419926
vt 0.154251 0.387130
vt 0.384147 0.160636
vt 0.416733 0.174972
vt 0.168100 0.419926
vt 0.154251 0.387130
vt 0.430130 0.209112
vt 0.202034 0.433832
vt 0.430131 0.209111
vt 0.202035 0.433831
vt 0.430131 0.209111
vt 0.202035 0.433831
vt 0.433122 0.266549
vt 0.259420 0.437680
vt 0.433122 0.266549
vt 0.259421 0.437679
vt 0.433122 0.266548
vt 0.259422 0.437679
vt 0.654588 0.513536
vt 0.503079 0.662802
vt 0.507307 0.694103
vt 0.685821 0.518229
vt 0.694284 0.553576
vt 0.542523 0.703091
vt 0.507307 0.694103
vt 0.685822 0.518229
vt 0.694284 0.553575
vt 0.542523 0.703091
vt 0.602042 0.726101
vt 0.716389 0.613446
vt 0.717627 0.644755
vt 0.633347 0.727788
vt 0.654586 0.513538
vt 0.503077 0.662805
vt 0.654588 0.513535
vt 0.503079 0.662802
vt 0.507304 0.694105
vt 0.685820 0.518232
vt 0.694282 0.553578
vt 0.542521 0.703094
vt 0.602040 0.726115
vt 0.716387 0.613460
vt 0.717642 0.644769
vt 0.633362 0.727802
vt 0.602383 0.725996
vt 0.716407 0.613429
vt 0.717609 0.644782
vt 0.633575 0.727753
vt 0.544546 0.077482
vt 0.634864 0.064905
vt 0.634406 0.255892
vt 0.544150 0.242882
vt 0.027119 0.679775
vt 0.027119 0.382648
vt 0.050021 0.374724
vt 0.141827 0.491528
vt 0.473376 0.112442
vt 0.473719 0.208145
vt 0.724922 0.160615
vt 0.725151 0.243099
vt 0.436681 0.780939
vt 0.534548 0.767072
vt 0.534548 0.974094
vt 0.436680 0.960226
vt 0.344343 0.697232
vt 0.278698 0.526886
vt 0.301457 0.507681
vt 0.458334 0.601044
vt 0.359874 0.818827
vt 0.359874 0.922338
vt 0.632415 0.780940
vt 0.632415 0.960226
vt 0.544150 0.242882
vt 0.634406 0.255892
vt 0.634864 0.064905
vt 0.544546 0.077482
vt 0.141827 0.491528
vt 0.050022 0.374724
vt 0.027119 0.382648
vt 0.027119 0.679775
vt 0.473719 0.208145
vt 0.473376 0.112442
vt 0.725151 0.243099
vt 0.724922 0.160615
vt 0.019835 0.020773
vt 0.374707 0.483907
vt 0.477627 0.382509
vt 0.587137 0.511680
vt 0.502231 0.595329
vt 0.374706 0.483907
vt 0.477627 0.382509
vt 0.587136 0.511680
vt 0.502230 0.595329
vt 0.374705 0.483908
vt 0.477626 0.382511
vt 0.587134 0.511682
vt 0.502228 0.595331
vt 0.023707 0.328367
vt 0.327337 0.029231
vt 0.364294 0.066743
vt 0.060664 0.365880
vt 0.023707 0.328367
vt 0.327337 0.029230
vt 0.364294 0.066742
vt 0.060664 0.365879
vt 0.023708 0.328367
vt 0.327337 0.029230
vt 0.364294 0.066742
vt 0.060665 0.365879
vt 0.380763 0.103994
vt 0.097665 0.382903
vt 0.380763 0.103994
vt 0.097666 0.382902
vt 0.380764 0.103993
vt 0.097666 0.382902
vt 0.154251 0.387130
vt 0.384147 0.160636
vt 0.416733 0.174972
vt 0.168099 0.419926
vt 0.154251 0.387130
vt 0.384147 0.160636
vt 0.416733 0.174972
vt 0.168100 0.419926
vt 0.154252 0.387130
vt 0.384147 0.160636
vt 0.416733 0.174971
vt 0.168100 0.419926
vt 0.430130 0.209111
vt 0.202034 0.433832
vt 0.430131 0.209111
vt 0.202035 0.433831
vt 0.430131 0.209110
vt 0.202036 0.433831
vt 0.433122 0.266549
vt 0.259421 0.437679
vt 0.433122 0.266548
vt 0.259421 0.437679
vt 0.433123 0.266548
vt 0.259422 0.437678
vt 0.654588 0.513535
vt 0.503079 0.662802
vt 0.685822 0.518229
vt 0.694285 0.553575
vt 0.542523 0.703091
vt 0.507307 0.694103
vt 0.685823 0.518228
vt 0.694286 0.553575
vt 0.542524 0.703091
vt 0.507308 0.694102
vt 0.716405 0.613430
vt 0.717625 0.644757
vt 0.633346 0.727789
vt 0.602058 0.726085
vt 0.654587 0.513537
vt 0.503077 0.662804
vt 0.654589 0.513535
vt 0.503080 0.662802
vt 0.685820 0.518231
vt 0.694283 0.553578
vt 0.542521 0.703093
vt 0.507305 0.694104
vt 0.716418 0.613429
vt 0.717638 0.644773
vt 0.633358 0.727806
vt 0.602071 0.726084
vt 0.716289 0.613776
vt 0.717580 0.644990
vt 0.633366 0.727777
vt 0.602035 0.726108
vt 0.893345 0.282866
vt 0.899747 0.441479
vt 0.813659 0.457243
vt 0.720180 0.289855
vt 0.726582 0.448468
vt 0.519920 0.386183
vt 0.519210 0.368593
vt 0.962647 0.313642
vt 0.966344 0.405218
vt 0.950713 0.095637
vt 0.901641 0.198054
vt 0.841938 0.179189
vt 0.898602 0.060927
vt 0.838899 0.042062
vt 0.789827 0.144480
vt 0.680037 0.035892
vt 0.685479 0.024534
vt 0.984218 0.138303
vt 0.955886 0.197434
vt 0.899747 0.441479
vt 0.893345 0.282866
vt 0.813659 0.457243
vt 0.726582 0.448468
vt 0.720180 0.289855
vt 0.519210 0.368593
vt 0.519920 0.386183
vt 0.966344 0.405218
vt 0.962874 0.313803
vt 0.695160 0.592162
vt 0.580920 0.704547
vt 0.695153 0.591998
vt 0.580916 0.704545
vt 0.695154 0.591991
vt 0.580917 0.704538
vt 0.695164 0.591995
vt 0.581087 0.704547
vt 0.695166 0.591986
vt 0.580928 0.704533
vt 0.695159 0.591985
vt 0.580922 0.704533
vt 0.714254 0.598008
vt 0.586356 0.723879
vt 0.714392 0.597736
vt 0.586400 0.723834
vt 0.714380 0.597733
vt 0.586388 0.723831
vt 0.586648 0.723726
vt 0.714412 0.597719
vt 0.586379 0.723855
vt 0.714371 0.597757
vt 0.586376 0.723842
vt 0.714368 0.597744
vt 0.978107 0.694520
vt 0.902980 0.730609
vt 0.902980 0.658430
vt 0.819635 0.730609
vt 0.819635 0.658430
vt 0.744509 0.694520
vt 0.978108 0.622340
vt 0.902981 0.586251
vt 0.819635 0.586251
vt 0.744509 0.622340
vt 0.978108 0.550161
vt 0.902981 0.514071
vt 0.819635 0.514071
vt 0.744509 0.550161
vt 0.978107 0.911057
vt 0.902980 0.947147
vt 0.902981 0.874968
vt 0.819635 0.947147
vt 0.819635 0.874968
vt 0.744509 0.911057
vt 0.978107 0.838878
vt 0.902981 0.802788
vt 0.819635 0.802788
vt 0.744509 0.838878
vt 0.978107 0.766699
vt 0.744509 0.766699
vt 0.778285 0.224717
vt 0.690010 0.800865
vt 0.690010 0.940300
vt 0.778285 0.224717
vt 0.323525 0.868161
vt 0.224484 0.964731
vt 0.148319 0.964731
vt 0.049278 0.868160
vt 0.055812 0.821281
vt 0.316992 0.821281
vt 0.047857 0.784710
vt 0.324946 0.784710
vt 0.289244 0.656669
vt 0.083559 0.656669
vt 0.133079 0.608384
vt 0.239724 0.608384
vt 0.764824 0.321627
vt 0.764824 0.321627
vt 0.344738 0.750429
vt 0.028065 0.750429
vt 0.808115 0.319880
vt 0.806267 0.274092
vt 0.806268 0.274092
vt 0.808115 0.319879
vn 0.8634 0.0779 0.4985
vn 0.0000 0.0779 0.9970
vn -0.8634 0.0779 0.4985
vn -0.8660 -0.0000 0.5000
vn 0.0000 0.0000 1.0000
vn 0.8660 0.0000 0.5000
vn -0.7961 0.3938 0.4596
vn -0.0000 0.3938 0.9192
vn 0.7961 0.3938 0.4596
vn -0.7884 -0.4138 0.4552
vn 0.0000 -0.4138 0.9104
vn 0.7884 -0.4138 0.4552
vn -0.7756 0.4450 0.4478
vn 0.0000 0.4450 0.8956
vn 0.7756 0.4450 0.4478
vn -0.3314 0.9239 0.1913
vn 0.0000 0.9239 0.3827
vn 0.3314 0.9239 0.1913
vn 0.3595 0.9098 0.2075
vn 0.0000 0.9098 0.4151
vn -0.3595 0.9098 0.2075
vn 0.0000 -1.0000 0.0000
vn 0.0000 0.6281 0.7781
vn 0.6739 0.6281 0.3891
vn 0.2770 0.9475 0.1599
vn -0.6739 0.6281 0.3891
vn -0.0000 0.9475 0.3197
vn -0.2774 0.9474 0.1596
vn 0.5409 -0.7810 0.3123
vn 0.0000 -0.7810 0.6245
vn -0.5409 -0.7810 0.3123
vn -0.7715 0.4543 0.4454
vn 0.0000 0.4543 0.8909
vn 0.7715 0.4543 0.4454
vn 0.8395 -0.2454 0.4847
vn 0.6933 0.5992 0.4003
vn 0.4500 -0.8544 0.2598
vn 0.8395 0.2454 0.4847
vn -0.0000 -0.2454 0.9694
vn -0.0000 0.5992 0.8006
vn -0.0000 -0.8544 0.5196
vn -0.0000 0.2454 0.9694
vn -0.8395 -0.2454 0.4847
vn -0.6933 0.5992 0.4003
vn -0.4493 -0.8552 0.2584
vn -0.8395 0.2454 0.4847
vn 0.8634 0.0779 -0.4985
vn 0.0000 0.0779 -0.9970
vn -0.8634 0.0779 -0.4985
vn -0.8660 0.0000 -0.5000
vn 0.0000 0.0000 -1.0000
vn 0.8660 0.0000 -0.5000
vn -0.7961 0.3938 -0.4596
vn -0.0000 0.3938 -0.9192
vn 0.7961 0.3938 -0.4596
vn -0.7884 -0.4138 -0.4552
vn 0.0000 -0.4138 -0.9104
vn 0.7884 -0.4138 -0.4552
vn -0.7756 0.4450 -0.4478
vn 0.0000 0.4450 -0.8956
vn 0.7756 0.4450 -0.4478
vn -0.3314 0.9239 -0.1913
vn 0.0000 0.9239 -0.3827
vn 0.3314 0.9239 -0.1913
vn 0.3595 0.9098 -0.2075
vn 0.0000 0.9098 -0.4151
vn -0.3595 0.9098 -0.2075
vn 0.0000 0.6281 -0.7781
vn 0.6739 0.6281 -0.3891
vn 0.2770 0.9475 -0.1599
vn -0.6739 0.6281 -0.3891
vn -0.0000 0.9475 -0.3197
vn -0.2774 0.9474 -0.1596
vn 0.5409 -0.7810 -0.3123
vn 0.0000 -0.7810 -0.6245
vn -0.5409 -0.7810 -0.3123
vn -0.7715 0.4543 -0.4454
vn 0.0000 0.4543 -0.8909
vn 0.7715 0.4543 -0.4454
vn 0.8395 -0.2454 -0.4847
vn 0.6933 0.5992 -0.4003
vn 0.4500 -0.8544 -0.2598
vn -0.0000 -0.2454 -0.9694
vn -0.0000 0.5992 -0.8006
vn -0.0000 -0.8544 -0.5196
vn -0.0000 0.2454 -0.9694
vn -0.8395 -0.2454 -0.4847
vn -0.6933 0.5992 -0.4003
vn -0.4493 -0.8552 -0.2584
vn -0.1730 0.9799 -0.0998
vn -0.0000 0.9798 -0.1999
vn 0.1732 0.9798 -0.1000
vn -0.1730 0.9799 0.0998
vn -0.0000 0.9798 0.1999
vn 0.1732 0.9798 0.1000
vn -0.5293 0.7920 -0.3042
vn -0.0000 0.7912 -0.6116
vn 0.5295 0.7913 -0.3057
vn -0.5293 0.7920 0.3041
vn -0.0000 0.7912 0.6116
vn 0.5295 0.7913 0.3057
vn 0.7111 -0.5708 0.4105
vn -0.0000 -0.5713 0.8207
vn -0.7129 -0.5690 0.4098
vn 0.7111 -0.5708 -0.4105
vn -0.0000 -0.5713 -0.8207
vn -0.7129 -0.5690 -0.4098
vn -0.4804 -0.8321 -0.2774
vn -0.4804 0.8321 -0.2774
vn -0.0000 -0.8320 -0.5547
vn 0.0000 0.8320 -0.5547
vn 0.4804 -0.8321 -0.2774
vn 0.4804 0.8321 -0.2773
vn 0.4804 -0.8320 0.2774
vn 0.4804 0.8321 0.2773
vn -0.0000 -0.8321 0.5547
vn 0.0000 0.8320 0.5547
vn -0.4804 -0.8321 0.2774
vn -0.4804 0.8321 0.2773
vn -0.0000 -0.6830 0.7304
vn 0.0000 -0.6333 0.7739
vn 0.0000 -0.1256 0.9921
vn 0.0000 0.6830 -0.7304
vn 0.8395 0.2454 -0.4847
vn -0.8395 0.2454 -0.4847
vn 0.0000 0.6333 -0.7739
vn 0.0000 1.0000 0.0000
usemtl Bishop
s off
f 81/1/1 38/2/1 2/3/1 23/4/1
f 23/5/2 2/6/2 4/7/2 24/8/2
f 24/9/3 4/10/3 36/11/3 80/12/3
f 3/13/4 6/14/4 43/15/4 35/16/4
f 1/17/5 5/18/5 6/19/5 3/20/5
f 37/21/6 44/22/6 5/23/6 1/24/6
f 6/14/7 8/25/7 47/26/7 43/15/7
f 5/18/8 7/27/8 8/28/8 6/19/8
f 44/22/9 48/29/9 7/30/9 5/23/9
f 16/31/10 10/32/10 51/33/10 66/34/10
f 15/35/11 9/36/11 10/37/11 16/38/11
f 63/39/12 52/40/12 9/41/12 15/42/12
f 10/32/13 12/43/13 55/44/13 51/33/13
f 9/36/14 11/45/14 12/46/14 10/37/14
f 52/40/15 56/47/15 11/48/15 9/41/15
f 12/43/16 14/49/16 59/50/16 55/44/16
f 11/45/17 13/51/17 14/52/17 12/46/17
f 56/47/18 60/53/18 13/54/18 11/48/18
f 48/29/19 63/39/19 15/42/19 7/30/19
f 7/27/20 15/35/20 16/38/20 8/28/20
f 8/25/21 16/31/21 66/34/21 47/26/21
f 4/7/22 2/6/22 20/55/22 22/56/22
f 21/57/23 19/58/23 17/59/23 18/60/23
f 19/61/24 74/62/24 68/63/24 17/64/24
f 112/65/25 111/66/25 92/67/25 29/68/25
f 36/11/22 4/10/22 22/69/22 72/70/22
f 2/3/22 38/2/22 75/71/22 20/72/22
f 73/73/26 21/74/26 18/75/26 67/76/26
f 113/77/27 112/78/27 29/79/27 34/80/27
f 110/81/28 113/82/28 34/83/28 71/84/28
f 20/72/29 75/71/29 74/62/29 19/61/29
f 22/56/30 20/55/30 19/58/30 21/57/30
f 72/70/31 22/69/31 21/74/31 73/73/31
f 14/49/32 24/9/32 80/12/32 59/50/32
f 13/51/33 23/5/33 24/8/33 14/52/33
f 60/53/34 81/1/34 23/4/34 13/54/34
f 91/85/35 90/86/35 27/87/35 28/88/35
f 89/89/36 88/90/36 25/91/36 136/92/36
f 92/93/37 91/85/37 28/88/37 29/94/37
f 90/86/38 139/95/38 26/96/38 27/87/38
f 28/97/39 27/98/39 32/99/39 33/100/39
f 136/101/40 25/102/40 30/103/40 137/104/40
f 29/105/41 28/97/41 33/100/41 34/106/41
f 27/98/42 26/107/42 31/108/42 32/99/42
f 33/109/43 32/110/43 86/111/43 87/112/43
f 137/113/44 30/114/44 84/115/44 85/116/44
f 34/117/45 33/109/45 87/112/45 71/118/45
f 32/110/46 31/119/46 141/120/46 86/111/46
f 35/16/22 103/121/22 3/13/22
f 3/20/22 103/121/22 1/17/22
f 37/21/22 1/24/22 103/121/22
f 81/122/47 82/123/47 40/124/47 38/125/47
f 82/126/48 83/127/48 42/128/48 40/129/48
f 83/130/49 80/131/49 36/132/49 42/133/49
f 41/134/50 35/135/50 43/136/50 46/137/50
f 39/138/51 41/139/51 46/140/51 45/141/51
f 37/142/52 39/143/52 45/144/52 44/145/52
f 46/137/53 43/136/53 47/146/53 50/147/53
f 45/141/54 46/140/54 50/148/54 49/149/54
f 44/145/55 45/144/55 49/150/55 48/151/55
f 65/152/56 66/153/56 51/154/56 54/155/56
f 64/156/57 65/157/57 54/158/57 53/159/57
f 63/160/58 64/161/58 53/162/58 52/163/58
f 54/155/59 51/154/59 55/164/59 58/165/59
f 53/159/60 54/158/60 58/166/60 57/167/60
f 52/163/61 53/162/61 57/168/61 56/169/61
f 58/165/62 55/164/62 59/170/62 62/171/62
f 57/167/63 58/166/63 62/172/63 61/173/63
f 56/169/64 57/168/64 61/174/64 60/175/64
f 48/151/65 49/150/65 64/161/65 63/160/65
f 49/149/66 50/148/66 65/157/66 64/156/66
f 50/147/67 47/146/67 66/153/67 65/152/67
f 42/128/22 79/176/22 77/177/22 40/129/22
f 78/178/68 70/179/68 69/180/68 76/181/68
f 76/182/69 69/183/69 68/184/69 74/185/69
f 114/186/70 97/187/70 92/188/70 111/189/70
f 36/132/22 72/190/22 79/191/22 42/133/22
f 40/124/22 77/192/22 75/193/22 38/125/22
f 73/194/71 67/195/71 70/196/71 78/197/71
f 115/198/72 102/199/72 97/200/72 114/201/72
f 110/202/73 71/203/73 102/204/73 115/205/73
f 77/192/74 76/182/74 74/185/74 75/193/74
f 79/176/75 78/178/75 76/181/75 77/177/75
f 72/190/76 73/194/76 78/197/76 79/191/76
f 62/171/77 59/170/77 80/131/77 83/130/77
f 61/173/78 62/172/78 83/127/78 82/126/78
f 60/175/79 61/174/79 82/123/79 81/122/79
f 91/206/80 96/207/80 95/208/80
f 89/209/81 94/210/81 93/211/81 88/212/81
f 92/213/82 97/214/82 96/207/82 91/206/82
f 96/215/83 101/216/83 100/217/83 95/218/83
f 94/219/84 99/220/84 98/221/84 93/222/84
f 97/223/85 102/224/85 101/216/85 96/215/85
f 95/218/86 100/217/86 99/220/86 94/219/86
f 101/225/87 87/226/87 100/227/87
f 99/228/88 85/229/88 84/230/88 98/231/88
f 102/232/89 71/233/89 87/226/89 101/225/89
f 35/135/22 41/134/22 103/121/22
f 41/139/22 39/138/22 103/121/22
f 37/142/22 103/121/22 39/143/22
f 67/195/90 104/234/90 109/235/90 70/196/90
f 70/179/91 109/236/91 108/237/91 69/180/91
f 69/183/92 108/238/92 105/239/92 68/184/92
f 67/76/93 18/75/93 107/240/93 104/241/93
f 18/60/94 17/59/94 106/242/94 107/243/94
f 17/64/95 68/63/95 105/244/95 106/245/95
f 120/246/96 110/202/96 115/205/96 119/247/96
f 119/248/97 115/198/97 114/201/97 118/249/97
f 118/250/98 114/186/98 111/189/98 121/251/98
f 120/252/99 117/253/99 113/82/99 110/81/99
f 117/254/100 116/255/100 112/78/100 113/77/100
f 116/256/101 121/257/101 111/66/101 112/65/101
f 106/245/102 105/244/102 121/257/102 116/256/102
f 107/243/103 106/242/103 116/255/103 117/254/103
f 104/241/104 107/240/104 117/253/104 120/252/104
f 108/238/105 118/250/105 121/251/105 105/239/105
f 109/236/106 119/248/106 118/249/106 108/237/106
f 104/234/107 120/246/107 119/247/107 109/235/107
f 124/258/108 123/259/108 126/260/108
f 123/259/50 122/261/50 125/262/50 126/260/50
f 122/261/109 131/263/109 125/262/109
f 124/264/110 126/260/110 128/265/110
f 126/260/51 125/262/51 127/266/51 128/265/51
f 125/262/111 131/267/111 127/266/111
f 124/268/112 128/265/112 130/269/112
f 128/265/52 127/266/52 129/270/52 130/269/52
f 127/266/113 131/271/113 129/270/113
f 124/272/114 130/273/114 133/274/114
f 130/273/6 129/275/6 132/276/6 133/274/6
f 129/275/115 131/277/115 132/276/115
f 124/278/116 133/274/116 135/279/116
f 133/274/5 132/276/5 134/280/5 135/279/5
f 132/276/117 131/281/117 134/280/117
f 124/282/118 135/279/118 123/259/118
f 135/279/4 134/280/4 122/261/4 123/259/4
f 134/280/119 131/283/119 122/261/119
f 139/95/36 138/284/36 26/96/36
f 26/107/40 138/285/40 140/286/40 31/108/40
f 31/119/44 140/287/44 141/120/44
f 89/288/120 136/289/120 137/290/120 85/291/120
f 143/292/121 142/293/121 89/288/121 85/291/121
f 142/293/122 143/292/122 144/294/122 145/295/122
f 139/296/123 141/297/123 140/298/123 138/299/123
f 89/209/124 142/300/124 94/210/124
f 143/301/125 85/229/125 99/228/125
f 90/302/126 86/303/126 141/297/126 139/296/126
f 144/294/127 86/303/127 90/302/127 145/295/127
f 142/300/124 145/304/124 95/208/124 94/210/124
f 95/208/80 145/304/80 90/305/80 91/206/80
f 100/227/87 87/226/87 86/306/87 144/307/87
f 99/228/125 100/227/125 144/307/125 143/301/125
