# Blender v2.83.5 OBJ File: 'ChessSet.blend'
# www.blender.org
v -4.019336 1.589786 0.021462
v -4.023993 1.719343 0.021462
v -4.019336 1.589786 -0.021462
v -4.023993 1.719343 -0.021462
v -3.980383 1.589786 0.021462
v -3.975725 1.719343 0.021462
v -3.980383 1.589786 -0.021462
v -3.975725 1.719343 -0.021462
v -4.019336 1.641577 0.021462
v -4.019336 1.677164 0.021462
v -4.019336 1.677164 -0.021462
v -4.019336 1.641577 -0.021462
v -3.980383 1.677164 -0.021462
v -3.980383 1.641577 -0.021462
v -3.980383 1.677164 0.021462
v -3.980383 1.641577 0.021462
v -4.054239 1.638511 0.021462
v -4.054239 1.680230 0.021462
v -4.054239 1.680230 -0.021462
v -4.054239 1.638511 -0.021462
v -3.945479 1.680230 -0.021462
v -3.945479 1.638511 -0.021462
v -3.945479 1.680230 0.021462
v -3.945479 1.638511 0.021462
v -3.780912 0.000000 -0.379471
v -3.941677 1.038013 -0.101019
v -4.219088 0.000000 -0.379471
v -4.058323 1.038013 -0.101019
v -3.780912 0.090078 -0.379471
v -4.219088 0.090078 -0.379471
v -3.795728 0.149978 -0.353810
v -4.204272 0.149978 -0.353810
v -3.820596 0.231832 -0.310737
v -4.179404 0.231832 -0.310737
v -3.835415 0.283491 -0.285070
v -4.164585 0.283491 -0.285070
v -3.874664 0.311650 -0.217088
v -4.125336 0.311650 -0.217088
v -3.834116 0.180315 -0.287319
v -4.165884 0.180315 -0.287319
v -3.890495 1.106423 -0.189668
v -4.109505 1.106423 -0.189668
v -3.871191 1.065003 -0.223105
v -3.890677 1.038013 -0.189353
v -4.128809 1.065003 -0.223105
v -4.109323 1.038013 -0.189353
v -3.917900 0.511166 -0.142201
v -4.082100 0.511166 -0.142201
v -3.939183 1.166549 -0.105331
v -4.060810 1.166549 -0.105331
v -3.917562 1.115991 -0.142772
v -4.082428 1.115984 -0.142776
v -3.917514 1.153870 -0.142909
v -4.082530 1.153870 -0.142909
v -3.907661 1.140687 -0.159962
v -4.092364 1.140698 -0.159959
v -4.100962 1.515965 -0.174734
v -3.899174 1.515951 -0.174747
v -4.123780 1.472500 -0.214224
v -3.876394 1.472486 -0.214239
v -4.037171 1.538022 -0.064392
v -3.962810 1.538017 -0.064397
v -4.037171 1.592212 -0.064392
v -3.962810 1.592207 -0.064397
v -3.955157 1.565111 -0.077668
v -4.044843 1.565117 -0.077662
v -3.780912 -0.000000 0.379471
v -3.941677 1.038013 0.101019
v -4.219088 -0.000000 0.379471
v -4.058323 1.038013 0.101019
v -3.780912 0.090078 0.379471
v -4.219088 0.090078 0.379471
v -3.795728 0.149978 0.353810
v -4.204272 0.149978 0.353810
v -3.820596 0.231832 0.310737
v -4.179404 0.231832 0.310737
v -3.835415 0.283491 0.285070
v -4.164585 0.283491 0.285070
v -3.874664 0.311650 0.217088
v -4.125336 0.311650 0.217088
v -3.834116 0.180315 0.287319
v -4.165884 0.180315 0.287319
v -3.890495 1.106423 0.189669
v -4.109505 1.106423 0.189669
v -3.871191 1.065003 0.223105
v -3.890677 1.038013 0.189353
v -4.128809 1.065003 0.223105
v -4.109323 1.038013 0.189353
v -3.917900 0.511166 0.142201
v -4.082100 0.511166 0.142201
v -3.939183 1.166549 0.105331
v -4.060810 1.166549 0.105331
v -3.917562 1.115991 0.142772
v -4.082428 1.115984 0.142776
v -3.917514 1.153870 0.142909
v -4.082530 1.153870 0.142909
v -3.907661 1.140687 0.159962
v -4.092364 1.140698 0.159959
v -4.100962 1.515965 0.174734
v -3.899174 1.515951 0.174747
v -4.123780 1.472500 0.214224
v -3.876394 1.472486 0.214239
v -4.438175 -0.000000 -0.000000
v -4.116647 1.038013 0.000000
v -3.561825 0.000000 0.000000
v -3.883353 1.038013 0.000000
v -4.438175 0.090078 0.000000
v -3.561825 0.090078 0.000000
v -4.408545 0.149978 0.000000
v -3.591456 0.149978 0.000000
v -4.358808 0.231832 0.000000
v -3.641192 0.231832 0.000000
v -4.329170 0.283491 0.000000
v -3.670830 0.283491 0.000000
v -4.250672 0.311650 0.000000
v -3.749328 0.311650 0.000000
v -3.668232 0.180315 0.000000
v -4.331768 0.180315 0.000000
v -4.219010 1.106423 0.000000
v -3.780990 1.106423 0.000000
v -4.121171 1.166631 0.000000
v -4.218646 1.038013 0.000000
v -4.257619 1.065003 0.000000
v -3.742381 1.065003 0.000000
v -3.781354 1.038013 0.000000
v -4.164199 0.511166 0.000000
v -3.835801 0.511166 0.000000
v -3.878371 1.166549 0.000000
v -4.000000 0.000000 0.000000
v -4.164606 1.116031 0.000000
v -3.835132 1.115991 0.000000
v -4.164443 1.153965 0.000000
v -3.835006 1.153870 0.000000
v -4.184271 1.140736 0.000000
v -3.815307 1.140687 0.000000
v -4.201119 1.516048 0.000000
v -3.798279 1.515944 0.000000
v -3.752698 1.472479 0.000000
v -4.246570 1.472615 0.000000
v -4.037171 1.538022 0.064392
v -3.962810 1.538017 0.064397
v -4.074081 1.538053 0.000000
v -3.925628 1.538015 0.000000
v -4.037171 1.592212 0.064392
v -3.962810 1.592207 0.064397
v -4.074081 1.592242 0.000000
v -3.925628 1.592204 0.000000
v -3.910312 1.565107 0.000000
v -3.955157 1.565111 0.077668
v -4.044843 1.565117 0.077662
v -4.089359 1.565153 0.000000
v -3.999854 1.592223 0.000000
vt 0.370374 0.726791
vt 0.302541 0.719255
vt 0.310164 0.650641
vt 0.377997 0.658177
vt 0.165664 0.726652
vt 0.233506 0.719206
vt 0.233452 0.796836
vt 0.165621 0.789300
vt 0.377860 0.858064
vt 0.310017 0.865509
vt 0.302488 0.796884
vt 0.370330 0.789440
vt 0.510862 0.789537
vt 0.427565 0.789481
vt 0.427608 0.726831
vt 0.510905 0.726888
vt 0.510815 0.858573
vt 0.427518 0.858516
vt 0.108430 0.726612
vt 0.103537 0.670473
vt 0.170634 0.670519
vt 0.025134 0.726555
vt 0.108387 0.789259
vt 0.025091 0.789203
vt 0.427656 0.657796
vt 0.510953 0.657853
vt 0.039657 0.710469
vt 0.034764 0.651113
vt 0.103417 0.845392
vt 0.170514 0.845438
vt 0.170467 0.914471
vt 0.103370 0.914427
vt 0.103586 0.601437
vt 0.170683 0.601485
vt 0.108557 0.545306
vt 0.165791 0.545346
vt 0.039622 0.805189
vt 0.034651 0.864614
vt 0.234430 0.710722
vt 0.239400 0.651298
vt 0.234395 0.805442
vt 0.239288 0.864797
vt 0.165497 0.970604
vt 0.108263 0.970565
vt 0.369476 0.437368
vt 0.466588 0.341382
vt 0.629598 0.541267
vt 0.560610 0.609455
vt 0.369570 0.437243
vt 0.466663 0.341238
vt 0.629783 0.541018
vt 0.560809 0.609221
vt 0.369570 0.437243
vt 0.466663 0.341238
vt 0.629783 0.541019
vt 0.560808 0.609221
vt 0.077580 0.295991
vt 0.336677 0.039794
vt 0.366878 0.071479
vt 0.107781 0.327675
vt 0.077579 0.295991
vt 0.336676 0.039795
vt 0.366878 0.071479
vt 0.107781 0.327675
vt 0.077598 0.295973
vt 0.336745 0.039830
vt 0.366928 0.071532
vt 0.107781 0.327675
vt 0.379966 0.103062
vt 0.138390 0.341934
vt 0.379966 0.103063
vt 0.138389 0.341934
vt 0.380001 0.103127
vt 0.138378 0.341949
vt 0.185593 0.345195
vt 0.381771 0.151214
vt 0.408738 0.163214
vt 0.196571 0.373005
vt 0.185592 0.345196
vt 0.381770 0.151215
vt 0.408738 0.163215
vt 0.196571 0.373005
vt 0.185570 0.345229
vt 0.381786 0.151289
vt 0.408744 0.163301
vt 0.196536 0.373049
vt 0.419316 0.192169
vt 0.224674 0.384631
vt 0.419316 0.192169
vt 0.224674 0.384631
vt 0.419309 0.192266
vt 0.224629 0.384688
vt 0.420778 0.240999
vt 0.272553 0.387564
vt 0.420778 0.241000
vt 0.272553 0.387564
vt 0.420751 0.241106
vt 0.272498 0.387641
vt 0.689557 0.542270
vt 0.560269 0.670110
vt 0.715569 0.546078
vt 0.722001 0.576088
vt 0.592498 0.704142
vt 0.563236 0.696705
vt 0.715365 0.546361
vt 0.721785 0.576380
vt 0.592256 0.704406
vt 0.563002 0.696957
vt 0.739162 0.627171
vt 0.739605 0.653811
vt 0.667672 0.724909
vt 0.641567 0.723634
vt 0.689556 0.542271
vt 0.560268 0.670111
vt 0.689359 0.542542
vt 0.560046 0.670356
vt 0.715568 0.546079
vt 0.722000 0.576090
vt 0.592497 0.704142
vt 0.563235 0.696706
vt 0.739413 0.626859
vt 0.739867 0.653509
vt 0.667949 0.724623
vt 0.641838 0.723344
vt 0.739305 0.627166
vt 0.739812 0.653711
vt 0.667944 0.724606
vt 0.641799 0.723364
vt 0.079900 0.034417
vt 0.080020 0.034350
vt 0.722037 0.608908
vt 0.624551 0.705149
vt 0.722036 0.608754
vt 0.624550 0.705151
vt 0.721804 0.609053
vt 0.624302 0.705424
vt 0.737885 0.613753
vt 0.628745 0.721562
vt 0.738004 0.613531
vt 0.628785 0.721524
vt 0.737759 0.613829
vt 0.628518 0.721804
vt 0.739164 0.875988
vt 0.885324 0.731778
vt 0.891564 0.765667
vt 0.772350 0.883297
vt 0.739705 0.875558
vt 0.885988 0.730915
vt 0.892188 0.764911
vt 0.772867 0.882892
vt 0.739312 0.875922
vt 0.885624 0.731311
vt 0.891807 0.765309
vt 0.772466 0.883263
vt 0.892199 0.841786
vt 0.848228 0.885264
vt 0.891791 0.842158
vt 0.847812 0.885626
vt 0.891739 0.842213
vt 0.847806 0.885562
vt 0.895205 0.525133
vt 0.894006 0.366856
vt 0.838429 0.368418
vt 0.837736 0.510244
vt 0.892853 0.215356
vt 0.891382 0.029328
vt 0.823173 0.048124
vt 0.826965 0.216928
vt 0.949595 0.367581
vt 0.958758 0.215934
vt 0.959888 0.047096
vt 0.952434 0.509379
vt 0.678596 0.135367
vt 0.701532 0.302869
vt 0.715481 0.438857
vt 0.629598 0.541267
vt 0.466588 0.341382
vt 0.369570 0.437243
vt 0.560809 0.609221
vt 0.629783 0.541018
vt 0.466663 0.341238
vt 0.369570 0.437243
vt 0.560808 0.609221
vt 0.077580 0.295991
vt 0.107781 0.327675
vt 0.077579 0.295991
vt 0.107781 0.327675
vt 0.366878 0.071479
vt 0.336676 0.039795
vt 0.366928 0.071532
vt 0.336745 0.039830
vt 0.138390 0.341934
vt 0.138389 0.341934
vt 0.379966 0.103063
vt 0.380001 0.103127
vt 0.185593 0.345195
vt 0.196571 0.373005
vt 0.185592 0.345196
vt 0.196571 0.373005
vt 0.408738 0.163215
vt 0.381770 0.151215
vt 0.408744 0.163301
vt 0.381786 0.151289
vt 0.224674 0.384631
vt 0.224674 0.384631
vt 0.419316 0.192169
vt 0.419309 0.192266
vt 0.272553 0.387564
vt 0.272553 0.387564
vt 0.420778 0.241000
vt 0.420751 0.241106
vt 0.560269 0.670110
vt 0.689557 0.542270
vt 0.715569 0.546078
vt 0.563236 0.696705
vt 0.592498 0.704142
vt 0.722001 0.576088
vt 0.715365 0.546361
vt 0.721785 0.576380
vt 0.739162 0.627171
vt 0.739605 0.653811
vt 0.560268 0.670111
vt 0.689359 0.542542
vt 0.563235 0.696706
vt 0.592497 0.704142
vt 0.739413 0.626859
vt 0.641838 0.723344
vt 0.667949 0.724623
vt 0.739867 0.653509
vt 0.641799 0.723364
vt 0.667944 0.724606
vt 0.624551 0.705149
vt 0.624550 0.705151
vt 0.722036 0.608754
vt 0.721804 0.609053
vt 0.628745 0.721562
vt 0.738004 0.613531
vt 0.628785 0.721524
vt 0.737759 0.613829
vt 0.739164 0.875988
vt 0.772350 0.883297
vt 0.739705 0.875558
vt 0.772867 0.882892
vt 0.892188 0.764911
vt 0.885988 0.730915
vt 0.891807 0.765309
vt 0.885624 0.731311
vt 0.848228 0.885264
vt 0.892199 0.841786
vt 0.891791 0.842158
vt 0.847806 0.885562
vt 0.838429 0.368418
vt 0.894006 0.366856
vt 0.892853 0.215356
vt 0.826965 0.216928
vt 0.949595 0.367581
vt 0.958758 0.215934
vn -0.9940 -0.1098 0.0000
vn 0.0000 -0.0000 -1.0000
vn 0.9940 -0.1098 0.0000
vn 0.0000 0.0000 1.0000
vn 0.0000 1.0000 0.0000
vn 1.0000 0.0000 0.0000
vn -1.0000 0.0000 0.0000
vn 0.0875 -0.9962 0.0000
vn -0.0875 -0.9962 0.0000
vn 0.0875 0.9962 0.0000
vn -0.0875 0.9962 0.0000
vn 0.8634 0.0779 -0.4985
vn 0.0000 0.0779 -0.9970
vn -0.8634 0.0779 -0.4985
vn -0.8660 0.0000 -0.5000
vn 0.8660 0.0000 -0.5000
vn -0.7961 0.3938 -0.4596
vn -0.0000 0.3938 -0.9192
vn 0.7961 0.3938 -0.4596
vn -0.7884 -0.4138 -0.4552
vn 0.0000 -0.4138 -0.9104
vn 0.7884 -0.4138 -0.4552
vn -0.7756 0.4450 -0.4478
vn 0.0000 0.4450 -0.8956
vn 0.7756 0.4450 -0.4478
vn -0.3314 0.9239 -0.1913
vn 0.0000 0.9239 -0.3827
vn 0.3314 0.9239 -0.1913
vn 0.3595 0.9098 -0.2075
vn 0.0000 0.9098 -0.4151
vn -0.3595 0.9098 -0.2075
vn 0.0000 -1.0000 0.0000
vn 0.0000 0.6281 -0.7781
vn 0.6739 0.6281 -0.3891
vn 0.2770 0.9475 -0.1599
vn -0.6739 0.6281 -0.3891
vn -0.0000 0.9475 -0.3197
vn -0.2772 0.9475 -0.1596
vn 0.5409 -0.7810 -0.3123
vn 0.0000 -0.7810 -0.6245
vn -0.5409 -0.7810 -0.3123
vn -0.8108 0.3514 -0.4681
vn 0.0000 0.3514 -0.9362
vn 0.8108 0.3514 -0.4681
vn -0.1730 0.9798 -0.0999
vn -0.0000 0.9798 -0.1998
vn 0.1732 0.9798 -0.1000
vn -0.5297 0.7917 -0.3044
vn 0.0000 0.7913 -0.6115
vn 0.5295 0.7913 -0.3057
vn 0.7111 -0.5708 -0.4105
vn -0.0000 -0.5711 -0.8209
vn -0.7127 -0.5694 -0.4097
vn -0.6423 0.6721 -0.3685
vn -0.0000 0.6725 -0.7401
vn 0.6411 0.6723 -0.3701
vn 0.8159 -0.3352 -0.4711
vn -0.0000 -0.3353 -0.9421
vn -0.8176 -0.3350 -0.4684
vn 0.0001 0.9806 -0.1961
vn 0.1699 0.9806 -0.0981
vn -0.1699 0.9806 -0.0978
vn 0.7778 0.4396 -0.4491
vn -0.7792 0.4395 -0.4469
vn -0.0000 0.4398 -0.8981
vn -0.0001 -0.4399 -0.8981
vn -0.7794 -0.4394 -0.4466
vn 0.7778 -0.4397 -0.4491
vn 0.0003 1.0000 -0.0003
vn 0.0001 1.0000 -0.0002
vn 0.0003 1.0000 -0.0001
vn 0.8634 0.0779 0.4985
vn 0.0000 0.0779 0.9970
vn -0.8634 0.0779 0.4985
vn -0.8660 -0.0000 0.5000
vn 0.8660 0.0000 0.5000
vn -0.7961 0.3938 0.4596
vn -0.0000 0.3938 0.9192
vn 0.7961 0.3938 0.4596
vn -0.7884 -0.4138 0.4552
vn 0.0000 -0.4138 0.9104
vn 0.7884 -0.4138 0.4552
vn -0.7756 0.4450 0.4478
vn 0.0000 0.4450 0.8956
vn 0.7756 0.4450 0.4478
vn -0.3314 0.9239 0.1913
vn 0.0000 0.9239 0.3827
vn 0.3314 0.9239 0.1913
vn 0.3595 0.9098 0.2075
vn 0.0000 0.9098 0.4151
vn -0.3595 0.9098 0.2075
vn 0.0000 0.6281 0.7781
vn 0.6739 0.6281 0.3891
vn 0.2770 0.9475 0.1599
vn -0.6739 0.6281 0.3891
vn -0.0000 0.9475 0.3197
vn -0.2772 0.9475 0.1596
vn 0.5409 -0.7810 0.3123
vn 0.0000 -0.7810 0.6245
vn -0.5409 -0.7810 0.3123
vn -0.8108 0.3514 0.4681
vn 0.0000 0.3514 0.9362
vn 0.8108 0.3514 0.4681
vn -0.1730 0.9798 0.0999
vn -0.0000 0.9798 0.1998
vn 0.1732 0.9798 0.1000
vn -0.5297 0.7917 0.3044
vn 0.0000 0.7913 0.6115
vn 0.5295 0.7913 0.3057
vn 0.7111 -0.5708 0.4105
vn -0.0000 -0.5711 0.8209
vn -0.7127 -0.5694 0.4097
vn -0.6423 0.6721 0.3685
vn -0.0000 0.6725 0.7401
vn 0.6411 0.6723 0.3701
vn 0.8159 -0.3352 0.4711
vn -0.0000 -0.3353 0.9421
vn -0.8176 -0.3350 0.4684
vn 0.0001 0.9806 0.1961
vn 0.1699 0.9806 0.0981
vn -0.1699 0.9806 0.0978
vn 0.7778 0.4396 0.4491
vn -0.7792 0.4395 0.4469
vn -0.0000 0.4398 0.8981
vn -0.0001 -0.4399 0.8981
vn -0.7794 -0.4394 0.4466
vn 0.7778 -0.4397 0.4491
vn 0.0003 1.0000 0.0003
vn 0.0001 1.0000 0.0002
vn 0.0003 1.0000 0.0001
usemtl King
s off
f 10/1/1 2/2/1 4/3/1 11/4/1
f 11/5/2 4/6/2 8/7/2 13/8/2
f 13/9/3 8/10/3 6/11/3 15/12/3
f 15/12/4 6/11/4 2/2/4 10/1/4
f 8/7/5 4/6/5 2/2/5 6/11/5
f 5/13/4 16/14/4 9/15/4 1/16/4
f 16/14/4 15/12/4 10/1/4 9/15/4
f 7/17/6 14/18/6 16/14/6 5/13/6
f 11/5/2 12/19/2 20/20/2 19/21/2
f 3/22/2 12/19/2 14/23/2 7/24/2
f 12/19/2 11/5/2 13/8/2 14/23/2
f 1/16/7 9/15/7 12/25/7 3/26/7
f 12/19/8 9/27/8 17/28/8 20/20/8
f 22/29/6 21/30/6 23/31/6 24/32/6
f 17/33/7 18/34/7 19/21/7 20/20/7
f 9/35/4 10/36/4 18/34/4 17/33/4
f 16/37/9 14/23/9 22/29/9 24/38/9
f 10/39/10 11/5/10 19/21/10 18/40/10
f 13/8/11 15/41/11 23/42/11 21/30/11
f 15/43/4 16/44/4 24/32/4 23/31/4
f 14/23/2 13/8/2 21/30/2 22/29/2
f 127/45/12 47/46/12 26/47/12 106/48/12
f 47/49/13 48/50/13 28/51/13 26/52/13
f 48/53/14 126/54/14 104/55/14 28/56/14
f 27/57/15 103/58/15 107/59/15 30/60/15
f 25/61/2 27/62/2 30/63/2 29/64/2
f 105/65/16 25/66/16 29/67/16 108/68/16
f 30/60/17 107/59/17 109/69/17 32/70/17
f 29/64/18 30/63/18 32/71/18 31/72/18
f 108/68/19 29/67/19 31/73/19 110/74/19
f 40/75/20 118/76/20 111/77/20 34/78/20
f 39/79/21 40/80/21 34/81/21 33/82/21
f 117/83/22 39/84/22 33/85/22 112/86/22
f 34/78/23 111/77/23 113/87/23 36/88/23
f 33/82/24 34/81/24 36/89/24 35/90/24
f 112/86/25 33/85/25 35/91/25 114/92/25
f 36/88/26 113/87/26 115/93/26 38/94/26
f 35/90/27 36/89/27 38/95/27 37/96/27
f 114/92/28 35/91/28 37/97/28 116/98/28
f 110/74/29 31/73/29 39/84/29 117/83/29
f 31/72/30 32/71/30 40/80/30 39/79/30
f 32/70/31 109/69/31 118/76/31 40/75/31
f 28/51/32 46/99/32 44/100/32 26/52/32
f 45/101/33 42/102/33 41/103/33 43/104/33
f 43/105/34 41/106/34 120/107/34 124/108/34
f 53/109/35 49/110/35 128/111/35 133/112/35
f 104/55/32 122/113/32 46/114/32 28/56/32
f 26/47/32 44/115/32 125/116/32 106/48/32
f 123/117/36 119/118/36 42/119/36 45/120/36
f 54/121/37 50/122/37 49/123/37 53/124/37
f 132/125/38 121/126/38 50/127/38 54/128/38
f 44/115/39 43/105/39 124/108/39 125/116/39
f 46/99/40 45/101/40 43/104/40 44/100/40
f 122/113/41 123/117/41 45/120/41 46/114/41
f 38/94/42 115/93/42 126/54/42 48/53/42
f 37/96/43 38/95/43 48/50/43 47/49/43
f 116/98/44 37/97/44 47/46/44 127/45/44
f 103/58/32 27/57/32 129/129/32
f 27/62/32 25/61/32 129/129/32
f 105/65/32 129/130/32 25/66/32
f 119/118/45 130/131/45 52/132/45 42/119/45
f 42/102/46 52/133/46 51/134/46 41/103/46
f 41/106/47 51/135/47 131/136/47 120/107/47
f 134/137/48 132/125/48 54/128/48 56/138/48
f 56/139/49 54/121/49 53/124/49 55/140/49
f 55/141/50 53/109/50 133/112/50 135/142/50
f 51/135/51 55/141/51 135/142/51 131/136/51
f 52/133/52 56/139/52 55/140/52 51/134/52
f 130/131/53 134/137/53 56/138/53 52/132/53
f 59/143/54 139/144/54 136/145/54 57/146/54
f 60/147/55 59/148/55 57/149/55 58/150/55
f 138/151/56 60/152/56 58/153/56 137/154/56
f 128/111/57 49/110/57 60/152/57 138/151/57
f 49/123/58 50/122/58 59/148/58 60/147/58
f 50/127/59 121/126/59 139/144/59 59/143/59
f 58/150/60 57/149/60 61/155/60 62/156/60
f 137/154/61 58/153/61 62/157/61 143/158/61
f 57/146/62 136/145/62 142/159/62 61/160/62
f 148/161/63 65/162/63 64/163/63 147/164/63
f 66/165/64 151/166/64 146/167/64 63/168/64
f 65/162/65 66/165/65 63/168/65 64/163/65
f 62/169/66 61/170/66 66/165/66 65/162/66
f 61/170/67 142/171/67 151/166/67 66/165/67
f 143/172/68 62/169/68 65/162/68 148/161/68
f 63/168/69 146/167/69 152/173/69
f 64/163/70 63/168/70 152/174/70
f 147/164/71 64/163/71 152/175/71
f 127/45/72 106/48/72 68/176/72 89/177/72
f 89/178/73 68/179/73 70/180/73 90/181/73
f 90/182/74 70/183/74 104/55/74 126/54/74
f 69/184/75 72/185/75 107/59/75 103/58/75
f 67/186/4 71/187/4 72/188/4 69/189/4
f 105/65/76 108/68/76 71/190/76 67/191/76
f 72/185/77 74/192/77 109/69/77 107/59/77
f 71/187/78 73/193/78 74/194/78 72/188/78
f 108/68/79 110/74/79 73/195/79 71/190/79
f 82/196/80 76/197/80 111/77/80 118/76/80
f 81/198/81 75/199/81 76/200/81 82/201/81
f 117/83/82 112/86/82 75/202/82 81/203/82
f 76/197/83 78/204/83 113/87/83 111/77/83
f 75/199/84 77/205/84 78/206/84 76/200/84
f 112/86/85 114/92/85 77/207/85 75/202/85
f 78/204/86 80/208/86 115/93/86 113/87/86
f 77/205/87 79/209/87 80/210/87 78/206/87
f 114/92/88 116/98/88 79/211/88 77/207/88
f 110/74/89 117/83/89 81/203/89 73/195/89
f 73/193/90 81/198/90 82/201/90 74/194/90
f 74/192/91 82/196/91 118/76/91 109/69/91
f 70/180/32 68/179/32 86/212/32 88/213/32
f 87/214/92 85/215/92 83/216/92 84/217/92
f 85/218/93 124/108/93 120/107/93 83/219/93
f 95/220/94 133/112/94 128/111/94 91/221/94
f 104/55/32 70/183/32 88/222/32 122/113/32
f 68/176/32 106/48/32 125/116/32 86/223/32
f 123/117/95 87/224/95 84/225/95 119/118/95
f 96/226/96 95/227/96 91/228/96 92/229/96
f 132/125/97 96/230/97 92/231/97 121/126/97
f 86/223/98 125/116/98 124/108/98 85/218/98
f 88/213/99 86/212/99 85/215/99 87/214/99
f 122/113/100 88/222/100 87/224/100 123/117/100
f 80/208/101 90/182/101 126/54/101 115/93/101
f 79/209/102 89/178/102 90/181/102 80/210/102
f 116/98/103 127/45/103 89/177/103 79/211/103
f 103/58/32 129/129/32 69/184/32
f 69/189/32 129/129/32 67/186/32
f 105/65/32 67/191/32 129/130/32
f 119/118/104 84/225/104 94/232/104 130/131/104
f 84/217/105 83/216/105 93/233/105 94/234/105
f 83/219/106 120/107/106 131/136/106 93/235/106
f 134/137/107 98/236/107 96/230/107 132/125/107
f 98/237/108 97/238/108 95/227/108 96/226/108
f 97/239/109 135/142/109 133/112/109 95/220/109
f 93/235/110 131/136/110 135/142/110 97/239/110
f 94/234/111 93/233/111 97/238/111 98/237/111
f 130/131/112 94/232/112 98/236/112 134/137/112
f 101/240/113 99/241/113 136/145/113 139/144/113
f 102/242/114 100/243/114 99/244/114 101/245/114
f 138/151/115 137/154/115 100/246/115 102/247/115
f 128/111/116 138/151/116 102/247/116 91/221/116
f 91/228/117 102/242/117 101/245/117 92/229/117
f 92/231/118 101/240/118 139/144/118 121/126/118
f 100/243/119 141/248/119 140/249/119 99/244/119
f 137/154/120 143/158/120 141/250/120 100/246/120
f 99/241/121 140/251/121 142/159/121 136/145/121
f 148/161/122 147/164/122 145/252/122 149/253/122
f 150/254/123 144/255/123 146/167/123 151/166/123
f 149/253/124 145/252/124 144/255/124 150/254/124
f 141/256/125 149/253/125 150/254/125 140/257/125
f 140/257/126 150/254/126 151/166/126 142/171/126
f 143/172/127 148/161/127 149/253/127 141/256/127
f 144/255/128 152/173/128 146/167/128
f 145/252/129 152/174/129 144/255/129
f 147/164/130 152/175/130 145/252/130
