# Blender v2.83.5 OBJ File: 'ChessSet.blend'
# www.blender.org
v -0.776071 0.000000 -0.387857
v -1.223929 0.000000 -0.387857
v -0.776071 0.092069 -0.387857
v -1.223929 0.092069 -0.387857
v -0.791213 0.153293 -0.361629
v -1.208786 0.153293 -0.361629
v -0.815954 0.237341 -0.317989
v -1.184046 0.237341 -0.317989
v -0.831361 0.293310 -0.291451
v -1.168639 0.293310 -0.291451
v -0.904575 0.420879 -0.206337
v -1.095425 0.420879 -0.206337
v -0.830450 0.184300 -0.293669
v -1.169550 0.184300 -0.293669
v -1.142268 0.642210 -0.046148
v -1.123137 0.828578 -0.088991
v -1.447859 -0.000000 -0.000000
v -0.552141 0.000000 0.000000
v -0.776071 -0.000000 0.387857
v -1.223929 -0.000000 0.387857
v -1.447859 0.092069 0.000000
v -0.552141 0.092069 0.000000
v -0.776071 0.092069 0.387857
v -1.223929 0.092069 0.387857
v -1.417573 0.153292 0.000000
v -0.582427 0.153293 0.000000
v -0.791213 0.153293 0.361629
v -1.208786 0.153292 0.361629
v -1.365699 0.236363 -0.000332
v -0.634301 0.236363 -0.000332
v -0.815819 0.237418 0.318066
v -1.184181 0.237418 0.318066
v -1.336251 0.286064 0.000167
v -0.663749 0.286064 0.000167
v -0.831565 0.293547 0.291323
v -1.168435 0.293547 0.291323
v -1.119850 0.437108 -0.002201
v -0.880150 0.437108 -0.002201
v -0.904599 0.420724 0.201705
v -1.095401 0.420724 0.201705
v -0.660900 0.184300 0.000000
v -0.830450 0.184300 0.293669
v -1.169550 0.184300 0.293669
v -1.339100 0.184300 0.000000
v -1.000000 0.000000 0.000000
v -0.857185 0.526534 0.282122
v -1.113080 0.642210 -0.303030
v -1.097874 0.828578 -0.300170
v -0.886920 0.642210 -0.303030
v -0.902126 0.828578 -0.300170
v -1.142815 0.526534 0.282122
v -0.820322 0.526533 0.003122
v -0.857185 0.526534 -0.275879
v -1.142815 0.526534 -0.275879
v -1.179678 0.526533 0.003122
v -0.857732 0.642210 -0.046148
v -0.876863 0.828578 -0.088991
v -1.113080 0.642210 0.210734
v -1.097874 0.828578 0.122188
v -0.886920 0.642210 0.210734
v -0.902126 0.828578 0.122188
v -0.900187 0.749318 0.097364
v -1.099813 0.749318 0.097364
v -0.874424 0.749318 -0.103986
v -0.900187 0.749318 -0.305336
v -1.099813 0.749318 -0.305336
v -1.125576 0.749318 -0.103986
v -1.123350 0.978529 -0.022584
v -1.098044 0.978529 -0.245485
v -0.901956 0.978529 -0.245485
v -0.876650 0.978529 -0.022584
v -1.113879 0.978529 0.200317
v -0.886121 0.978529 0.200317
v -1.094410 1.113485 0.050249
v -1.075040 1.113485 -0.121773
v -0.924960 1.113485 -0.121773
v -0.905590 1.113485 0.050249
v -1.075040 1.113485 0.222272
v -0.924960 1.113485 0.222272
v -1.042320 1.182034 0.050249
v -1.033637 1.182034 -0.013745
v -0.966363 1.182034 -0.013745
v -0.957680 1.182034 0.050249
v -1.033637 1.182034 0.114244
v -0.966363 1.182034 0.114244
v -1.089822 0.908508 0.241415
v -0.910178 0.908508 0.241415
v -1.077873 1.032147 0.261528
v -0.922127 1.032147 0.261528
v -1.058661 0.790651 0.393321
v -0.941339 0.790651 0.393321
v -1.045169 0.879654 0.443707
v -0.954831 0.879654 0.443707
v -1.090956 0.820046 0.248212
v -0.909044 0.820046 0.248212
v -1.042075 0.757424 0.326516
v -0.957925 0.757424 0.326516
v -1.090956 0.803689 0.181924
v -0.909044 0.803689 0.181924
v -0.899994 1.242889 0.086800
v -1.100006 1.242889 0.086800
v -0.967766 0.428809 -0.206949
v -1.032234 0.428809 -0.206949
v -1.047605 0.526534 -0.275879
v -0.952395 0.526534 -0.275879
v -1.038051 0.828578 -0.300170
v -0.961949 0.828578 -0.300170
v -1.043963 0.642210 -0.303030
v -0.956037 0.642210 -0.303030
v -1.038805 0.749318 -0.305336
v -0.961195 0.749318 -0.305336
v -1.032681 0.978529 -0.245485
v -0.967319 0.978529 -0.245485
v -1.025013 1.113485 -0.121773
v -0.974987 1.113485 -0.121773
v -1.025808 1.182034 -0.013745
v -0.974192 1.182034 -0.013745
v -0.988788 1.182034 0.114244
v -1.011212 1.182034 0.114244
v -1.028580 1.182034 0.050249
v -0.971420 1.182034 0.050249
v -1.047605 0.505189 -0.346771
v -0.952395 0.505189 -0.346771
v -1.038051 0.843660 -0.372653
v -0.961949 0.843660 -0.372653
v -1.043963 0.632684 -0.376450
v -0.956037 0.632684 -0.376450
v -1.038805 0.750865 -0.379356
v -0.961195 0.750865 -0.379356
v -1.032681 1.016621 -0.308971
v -0.967319 1.016621 -0.308971
v -1.025013 1.170168 -0.169401
v -0.974987 1.170168 -0.169401
v -1.025808 1.253235 -0.034036
v -0.974192 1.253235 -0.034036
v -0.988788 1.227503 0.161602
v -1.011212 1.227503 0.161602
v -1.028580 1.256070 0.050249
v -0.971420 1.256070 0.050249
v -0.864821 0.326714 -0.002201
v -1.135179 0.326714 -0.002201
v -0.892369 0.310484 -0.206337
v -1.107631 0.310484 -0.206337
v -0.892397 0.310329 0.201705
v -1.107603 0.310329 0.201705
vt 0.802806 0.108920
vt 0.971533 0.207893
vt 0.951187 0.242580
vt 0.782459 0.143607
vt 0.971533 0.207893
vt 0.802806 0.108920
vt 0.782459 0.143607
vt 0.951187 0.242579
vt 0.930763 0.264326
vt 0.773445 0.172046
vt 0.773445 0.172046
vt 0.930763 0.264326
vt 0.771719 0.208859
vt 0.899473 0.283798
vt 0.891897 0.308642
vt 0.753731 0.227596
vt 0.899473 0.283798
vt 0.771719 0.208860
vt 0.753731 0.227597
vt 0.891897 0.308642
vt 0.873161 0.327508
vt 0.746408 0.253156
vt 0.688966 0.578657
vt 0.836198 0.668006
vt 0.815753 0.687986
vt 0.680683 0.606017
vt 0.746408 0.253157
vt 0.873161 0.327508
vt 0.972883 0.012284
vt 0.923431 0.560976
vt 0.743632 0.451863
vt 0.928025 0.350709
vt 0.823161 0.882776
vt 0.823161 0.937039
vt 0.791821 0.935314
vt 0.791821 0.882106
vt 0.187710 0.119827
vt 0.182774 0.015268
vt 0.223329 0.015740
vt 0.228927 0.124934
vt 0.073204 0.180440
vt 0.067494 0.038491
vt 0.127769 0.019967
vt 0.133560 0.152504
vt 0.624712 0.011074
vt 0.590525 0.030410
vt 0.684584 0.196708
vt 0.718771 0.177372
vt 0.266402 0.929163
vt 0.239462 0.929163
vt 0.239462 0.767364
vt 0.266402 0.767364
vt 0.718771 0.177372
vt 0.684584 0.196708
vt 0.590525 0.030410
vt 0.624712 0.011074
vt 0.568974 0.050021
vt 0.656672 0.205074
vt 0.656672 0.205074
vt 0.568974 0.050021
vt 0.549477 0.080279
vt 0.525098 0.087295
vt 0.602120 0.223472
vt 0.620695 0.206193
vt 0.620695 0.206193
vt 0.602120 0.223472
vt 0.525098 0.087295
vt 0.549477 0.080279
vt 0.506386 0.105302
vt 0.577046 0.230230
vt 0.577046 0.230230
vt 0.506386 0.105302
vt 0.815760 0.012765
vt 0.569112 0.271190
vt 0.728736 0.359736
vt 0.572241 0.453701
vt 0.476757 0.433171
vt 0.474388 0.294981
vt 0.504555 0.278470
vt 0.507473 0.448639
vt 0.143013 0.284188
vt 0.195378 0.224039
vt 0.181156 0.937041
vt 0.181156 0.759486
vt 0.213928 0.761211
vt 0.213928 0.935316
vt 0.015651 0.057991
vt 0.022025 0.182866
vt 0.953451 0.811432
vt 0.912316 0.805923
vt 0.912316 0.721240
vt 0.953451 0.737769
vt 0.022025 0.182866
vt 0.067495 0.038491
vt 0.015651 0.057991
vt 0.027509 0.307683
vt 0.080919 0.322169
vt 0.065981 0.975288
vt 0.065981 0.721239
vt 0.119616 0.747686
vt 0.119616 0.948841
vt 0.027509 0.307682
vt 0.080919 0.322169
vt 0.865433 0.887364
vt 0.865433 0.948838
vt 0.236709 0.233822
vt 0.073204 0.180440
vt 0.133560 0.152503
vt 0.127769 0.019967
vt 0.187710 0.119827
vt 0.195378 0.224039
vt 0.236709 0.233822
vt 0.228927 0.124934
vt 0.182774 0.015268
vt 0.223329 0.015740
vt 0.024846 0.958759
vt 0.024846 0.737768
vt 0.143013 0.284188
vt 0.912316 0.890602
vt 0.912316 0.975285
vt 0.307333 0.153691
vt 0.316002 0.263745
vt 0.728843 0.935466
vt 0.728843 0.877331
vt 0.301531 0.039431
vt 0.307333 0.153691
vt 0.301531 0.039431
vt 0.316002 0.263745
vt 0.386448 0.274319
vt 0.376898 0.097056
vt 0.380467 0.186006
vt 0.656605 0.915007
vt 0.656605 0.870511
vt 0.386448 0.274319
vt 0.346276 0.296668
vt 0.380467 0.186006
vt 0.376898 0.097056
vt 0.434319 0.243704
vt 0.505139 0.781520
vt 0.555622 0.818346
vt 0.555622 0.838291
vt 0.429981 0.155577
vt 0.429202 0.122350
vt 0.456662 0.213563
vt 0.429202 0.122350
vt 0.429981 0.155577
vt 0.606123 0.878182
vt 0.606123 0.871219
vt 0.283397 0.290699
vt 0.231754 0.374786
vt 0.278582 0.396688
vt 0.346276 0.296668
vt 0.283397 0.290699
vt 0.278582 0.396688
vt 0.231754 0.374786
vt 0.239043 0.298532
vt 0.239043 0.298532
vt 0.206252 0.345749
vt 0.305964 0.810841
vt 0.305964 0.885687
vt 0.227371 0.266115
vt 0.227371 0.266115
vt 0.580872 0.822844
vt 0.580872 0.810623
vt 0.606123 0.818346
vt 0.606123 0.825309
vt 0.555622 0.858237
vt 0.580872 0.873684
vt 0.580872 0.885905
vt 0.555622 0.878182
vt 0.434319 0.243704
vt 0.565090 0.954979
vt 0.458500 0.208212
vt 0.565090 0.741548
vt 0.456662 0.213563
vt 0.458500 0.208212
vt 0.439093 0.627308
vt 0.344593 0.631941
vt 0.343790 0.579684
vt 0.438072 0.577319
vt 0.632426 0.556910
vt 0.631537 0.576243
vt 0.595849 0.572996
vt 0.596739 0.553663
vt 0.469502 0.779001
vt 0.469502 0.917527
vt 0.375760 0.888439
vt 0.375760 0.808089
vt 0.335404 0.900438
vt 0.335404 0.796089
vt 0.505139 0.915008
vt 0.656605 0.781521
vt 0.656605 0.826016
vt 0.104810 0.645876
vt 0.052257 0.661998
vt 0.099050 0.592897
vt 0.728843 0.761061
vt 0.728843 0.819196
vt 0.105398 0.459419
vt 0.167394 0.468379
vt 0.164549 0.520717
vt 0.099050 0.513257
vt 0.791821 0.761212
vt 0.791821 0.814420
vt 0.052037 0.442055
vt 0.865433 0.809162
vt 0.865433 0.747687
vt 0.441042 0.489369
vt 0.508728 0.492320
vt 0.507030 0.543520
vt 0.438791 0.539397
vt 0.823161 0.813750
vt 0.823161 0.759487
vt 0.165769 0.638156
vt 0.163334 0.586198
vt 0.953450 0.958755
vt 0.953450 0.885092
vt 0.506279 0.627608
vt 0.505743 0.576719
vt 0.429150 0.433446
vt 0.426799 0.296338
vt 0.450721 0.289754
vt 0.453283 0.439206
vt 0.531592 0.271833
vt 0.534721 0.454344
vt 0.542085 0.628789
vt 0.539394 0.579825
vt 0.711053 0.519254
vt 0.878693 0.620989
vt 0.844742 0.641418
vt 0.708606 0.558803
vt 0.721201 0.488825
vt 0.901000 0.597938
vt 0.540336 0.541673
vt 0.345016 0.532767
vt 0.261832 0.582223
vt 0.263184 0.527555
vt 0.220248 0.524430
vt 0.219524 0.584003
vt 0.029631 0.518438
vt 0.029631 0.587715
vt 0.578475 0.618887
vt 0.262199 0.632054
vt 0.221365 0.634896
vt 0.346836 0.480534
vt 0.544681 0.493037
vt 0.223008 0.473291
vt 0.264296 0.477484
vt 0.206252 0.345750
vt 0.581079 0.505719
vt 0.496317 0.120441
vt 0.486248 0.135579
vt 0.538282 0.230169
vt 0.745266 0.271737
vt 0.798539 0.698196
vt 0.747038 0.687599
vt 0.712751 0.666791
vt 0.679574 0.626001
vt 0.486248 0.135579
vt 0.496317 0.120441
vt 0.538282 0.230169
vt 0.838797 0.347365
vt 0.744124 0.290317
vt 0.413685 0.425534
vt 0.411615 0.304775
vt 0.745266 0.271736
vt 0.838797 0.347365
vt 0.744124 0.290316
vt 0.398221 0.417623
vt 0.396430 0.313212
vt 0.678465 0.645984
vt 0.781324 0.708406
vt 0.804433 0.367222
vt 0.499518 0.230108
vt 0.499518 0.230108
vt 0.804433 0.367222
vn -0.8660 0.0000 -0.5000
vn 0.8660 0.0000 -0.5000
vn -0.7961 0.3938 -0.4596
vn 0.7961 0.3938 -0.4596
vn -0.7887 -0.4148 -0.4538
vn 0.7887 -0.4148 -0.4538
vn -0.7800 0.4439 -0.4411
vn 0.0000 0.4284 -0.9036
vn 0.7800 0.4439 -0.4411
vn 0.3595 0.9098 -0.2075
vn -0.3595 0.9098 -0.2075
vn 0.0000 -1.0000 -0.0000
vn 0.0000 0.0650 -0.9979
vn 0.9915 0.0430 -0.1226
vn 0.9634 0.2404 -0.1187
vn -0.8660 -0.0000 0.5000
vn 0.0000 -0.9709 0.2396
vn 0.8660 0.0000 0.5000
vn -0.7961 0.3938 0.4596
vn 0.7961 0.3938 0.4596
vn -0.7896 -0.4133 0.4536
vn 0.7896 -0.4133 0.4536
vn -0.7806 0.4427 0.4412
vn 0.7806 0.4428 0.4412
vn 0.3595 0.9098 0.2075
vn -0.3595 0.9098 0.2075
vn 0.0000 0.9098 0.4151
vn 0.9668 0.2279 0.1159
vn 0.0000 -0.2989 0.9543
vn 0.8918 -0.4468 -0.0712
vn -0.0247 -0.5574 -0.8299
vn -0.8918 -0.4468 -0.0712
vn 0.8893 -0.4519 0.0703
vn 0.0000 0.5252 0.8510
vn -0.8893 -0.4519 0.0703
vn 0.0000 -0.0215 -0.9998
vn 0.9362 0.3319 0.1154
vn 0.9924 -0.0034 0.1228
vn -0.9634 0.2404 -0.1187
vn -0.9924 -0.0034 0.1228
vn -0.9915 0.0430 -0.1226
vn -0.0000 -0.6051 0.7962
vn -0.9362 0.3319 0.1154
vn -0.9874 0.1048 -0.1184
vn 0.0000 -0.2285 -0.9735
vn 0.9874 0.1048 -0.1184
vn -0.9668 0.2279 0.1159
vn 0.9909 -0.1277 0.0421
vn 0.0000 0.3426 -0.9395
vn 0.9923 0.0454 -0.1156
vn -0.9915 -0.0539 0.1186
vn -0.9923 0.0454 -0.1156
vn -0.9619 0.2702 0.0409
vn 0.9586 0.2634 -0.1084
vn 0.0000 0.6757 -0.7371
vn 0.9619 0.2702 0.0409
vn -0.9114 0.2042 0.3573
vn -0.9586 0.2634 -0.1084
vn 0.7849 0.6133 0.0884
vn 0.0000 0.8444 0.5358
vn -0.7867 0.6102 -0.0935
vn 0.5557 -0.2482 0.7935
vn 0.7867 0.6102 -0.0935
vn 0.0000 0.8444 -0.5358
vn -0.9743 0.0432 0.2212
vn 0.8623 0.0010 0.5064
vn 0.0000 0.7269 0.6867
vn 0.9743 0.0432 0.2212
vn 0.0000 -0.9231 -0.3846
vn 0.9744 0.0296 0.2229
vn -0.8276 -0.5567 0.0714
vn 0.0000 -0.7810 -0.6246
vn 0.9890 -0.1358 0.0580
vn -0.9905 -0.1333 0.0329
vn -0.9890 -0.1358 0.0580
vn 0.0000 1.0000 0.0000
vn -0.8185 0.0544 0.5719
vn -0.7849 0.6133 0.0884
vn 0.6937 0.7141 -0.0941
vn 0.3217 0.2445 -0.9147
vn -0.6937 0.7141 -0.0941
vn -0.5557 -0.2482 0.7935
vn -0.3217 0.2445 -0.9147
vn 0.9992 0.0299 0.0255
vn 0.0000 -0.7214 0.6926
vn 0.0000 0.7668 0.6419
vn 0.0000 -0.4927 0.8702
vn 0.0000 0.4347 0.9006
vn 0.9909 -0.1286 0.0387
vn -0.9996 0.0285 -0.0061
vn -0.9909 -0.1286 0.0387
vn -1.0000 -0.0026 -0.0049
vn 0.9996 0.0285 -0.0061
vn 0.0247 -0.5574 -0.8299
vn 1.0000 -0.0026 -0.0049
vn 0.0000 0.4301 0.9028
vn -0.0000 -0.4174 0.9087
vn -0.0000 0.3938 0.9192
vn 0.0000 0.0000 1.0000
vn 0.0000 -0.8954 0.4453
vn 0.9993 -0.0052 -0.0373
vn 0.0000 0.9098 -0.4151
vn -0.0000 -0.4168 -0.9090
vn -0.0000 0.3938 -0.9192
vn 0.0000 0.0000 -1.0000
vn 0.0000 0.9686 0.2485
vn 0.0000 0.9994 -0.0336
vn 0.0000 0.8523 -0.5230
vn 0.0000 0.6726 -0.7400
vn 0.0000 0.3455 -0.9384
vn 0.0000 -0.2267 -0.9740
vn -0.0000 -0.0246 -0.9997
vn 0.0000 -0.8776 -0.4794
vn -0.0000 0.0720 -0.9974
vn 0.9311 -0.2632 0.2527
vn 1.0000 0.0087 0.0010
vn 0.9990 0.0457 -0.0025
vn -0.9992 0.0299 0.0255
vn -0.9881 0.0000 0.1541
vn -1.0000 0.0087 0.0010
vn -0.9990 0.0457 -0.0025
vn 0.9995 0.0291 0.0114
vn -0.9993 -0.0052 -0.0373
vn -0.9995 0.0291 0.0114
vn 0.8276 -0.5567 0.0714
vn -0.9744 0.0296 0.2229
vn 0.8185 0.0544 0.5719
vn 0.9905 -0.1333 0.0329
vn -0.8232 -0.5572 0.1088
vn -0.8291 -0.5482 -0.1096
vn 0.8291 -0.5482 -0.1096
vn 0.8232 -0.5572 0.1088
vn -0.9909 -0.1277 0.0421
vn -0.9823 0.1510 0.1106
vn 0.9915 -0.0539 0.1186
vn 0.9823 0.1510 0.1106
vn 0.9114 0.2042 0.3573
vn -0.8623 0.0010 0.5064
vn -0.9311 -0.2632 0.2527
vn 0.9881 -0.0000 0.1541
vn -0.3455 0.8436 0.4111
vn -0.6474 -0.3568 0.6734
vn -0.7224 0.6914 -0.0001
vn 0.6634 0.7483 0.0017
vn 0.3319 0.7574 -0.5622
vn 0.3471 0.8398 -0.4173
vn -0.3471 0.8398 -0.4173
vn -0.0746 -0.4250 -0.9021
vn 0.0746 -0.4250 -0.9021
vn 0.6474 -0.3568 0.6734
vn 0.3455 0.8436 0.4111
vn 0.7224 0.6914 -0.0001
vn 0.6372 -0.3244 -0.6990
vn -0.3301 0.7596 0.5603
vn 0.3301 0.7596 0.5603
vn -0.6372 -0.3244 -0.6990
vn -0.3319 0.7574 -0.5622
vn -0.6634 0.7483 0.0017
vn -0.9730 -0.2306 -0.0019
vn 0.9730 -0.2306 -0.0019
usemtl Knight
s off
f 2/1/1 17/2/1 21/3/1 4/4/1
f 18/5/2 1/6/2 3/7/2 22/8/2
f 4/4/3 21/3/3 25/9/3 6/10/3
f 22/8/4 3/7/4 5/11/4 26/12/4
f 14/13/5 44/14/5 29/15/5 8/16/5
f 41/17/6 13/18/6 7/19/6 30/20/6
f 8/16/7 29/15/7 33/21/7 10/22/7
f 7/23/8 8/24/8 10/25/8 9/26/8
f 30/20/9 7/19/9 9/27/9 34/28/9
f 26/12/10 5/11/10 13/18/10 41/17/10
f 6/10/11 25/9/11 44/14/11 14/13/11
f 17/2/12 2/1/12 45/29/12
f 2/30/12 1/31/12 45/32/12
f 18/5/12 45/29/12 1/6/12
f 110/33/13 66/34/13 48/35/13 106/36/13
f 64/37/14 65/38/14 50/39/14 57/40/14
f 52/41/15 53/42/15 49/43/15 56/44/15
f 20/45/16 24/46/16 21/47/16 17/48/16
f 94/49/17 98/50/17 99/51/17 95/52/17
f 18/53/18 22/54/18 23/55/18 19/56/18
f 24/46/19 28/57/19 25/58/19 21/47/19
f 22/54/20 26/59/20 27/60/20 23/55/20
f 43/61/21 32/62/21 29/63/21 44/64/21
f 41/65/22 30/66/22 31/67/22 42/68/22
f 32/62/23 36/69/23 33/70/23 29/63/23
f 30/66/24 34/71/24 35/72/24 31/67/24
f 26/59/25 41/65/25 42/68/25 27/60/25
f 28/57/26 43/61/26 44/64/26 25/58/26
f 17/48/12 45/73/12 20/45/12
f 20/74/12 45/75/12 19/76/12
f 18/53/12 19/56/12 45/73/12
f 42/77/27 43/78/27 28/79/27 27/80/27
f 60/81/28 56/44/28 64/37/28 62/82/28
f 63/83/29 62/84/29 61/85/29 59/86/29
f 11/87/30 53/42/30 38/88/30
f 102/89/31 105/90/31 53/91/31 11/92/31
f 37/93/32 54/94/32 12/95/32
f 39/96/33 38/88/33 46/97/33
f 51/98/34 46/99/34 60/100/34 58/101/34
f 37/93/35 40/102/35 51/103/35
f 108/104/36 47/105/36 66/34/36 110/33/36
f 46/97/37 52/41/37 56/44/37 60/81/37
f 62/82/38 64/37/38 57/40/38 61/106/38
f 54/94/39 55/107/39 15/108/39 47/109/39
f 67/110/40 63/111/40 59/112/40 16/113/40
f 66/114/41 67/110/41 16/113/41 48/115/41
f 40/116/42 39/117/42 46/99/42 51/98/42
f 55/107/43 51/103/43 58/118/43 15/108/43
f 47/109/44 15/108/44 67/110/44 66/114/44
f 104/119/45 54/120/45 47/105/45 108/104/45
f 56/44/46 49/43/46 65/38/46 64/37/46
f 15/108/47 58/118/47 63/111/47 67/110/47
f 61/106/48 71/121/48 73/122/48
f 106/36/49 48/35/49 69/123/49 112/124/49
f 57/40/50 50/39/50 70/125/50 71/121/50
f 16/113/51 59/112/51 68/126/51
f 48/115/52 16/113/52 68/126/52 69/127/52
f 68/126/53 72/128/53 78/129/53
f 71/121/54 70/125/54 76/130/54 77/131/54
f 112/124/55 69/123/55 75/132/55 114/133/55
f 73/122/56 71/121/56 79/134/56
f 78/129/57 72/128/57 88/135/57
f 69/127/58 68/126/58 74/136/58 75/137/58
f 79/134/59 77/131/59 85/138/59
f 79/139/60 85/140/60 118/141/60
f 75/137/61 74/136/61 80/142/61 81/143/61
f 85/138/62 77/131/62 100/144/62
f 77/131/63 76/130/63 82/145/63 83/146/63
f 114/133/64 75/132/64 81/147/64 116/148/64
f 88/135/65 86/149/65 90/150/65 92/151/65
f 73/122/66 89/152/66 87/153/66
f 58/101/67 60/100/67 62/84/67 63/83/67
f 87/153/68 89/152/68 93/154/68 91/155/68
f 59/86/69 61/85/69 99/51/69 98/50/69
f 87/153/70 91/155/70 95/156/70
f 90/150/71 94/157/71 96/158/71
f 94/49/72 95/52/72 97/159/72 96/160/72
f 73/122/73 99/161/73 61/106/73
f 98/162/74 94/157/74 72/128/74
f 59/112/75 98/162/75 72/128/75
f 121/163/76 83/164/76 82/165/76 117/166/76
f 86/149/77 72/128/77 94/157/77
f 119/167/76 120/168/76 80/169/76 84/170/76
f 84/171/78 74/136/78 78/129/78
f 84/170/79 80/169/79 101/172/79
f 77/131/80 83/146/80 100/173/80
f 83/164/81 85/140/81 100/174/81
f 74/136/82 84/171/82 101/175/82
f 80/142/83 74/136/83 101/176/83
f 85/140/76 83/164/76 121/163/76 118/141/76
f 115/177/84 113/178/84 131/179/84 133/180/84
f 80/169/76 120/168/76 116/148/76 81/147/76
f 119/181/85 118/182/85 136/183/85 137/184/85
f 89/185/86 88/186/86 92/187/86 93/188/86
f 90/189/87 91/190/87 93/188/87 92/187/87
f 79/139/88 78/191/88 88/186/88 89/185/88
f 76/192/64 115/193/64 117/166/64 82/165/64
f 105/194/89 102/195/89 123/196/89
f 78/191/60 119/167/60 84/170/60
f 78/191/60 79/139/60 118/141/60 119/167/60
f 70/197/55 113/198/55 115/193/55 76/192/55
f 104/199/90 108/200/90 126/201/90 122/202/90
f 50/203/49 107/204/49 113/198/49 70/197/49
f 103/205/91 104/199/91 122/202/91
f 53/91/45 105/90/45 109/206/45 49/207/45
f 114/208/92 116/209/92 134/210/92 132/211/92
f 49/207/36 109/206/36 111/212/36 65/213/36
f 109/214/93 105/194/93 123/196/93 127/215/93
f 12/216/94 54/120/94 104/119/94 103/217/94
f 117/218/95 115/177/95 133/180/95 135/219/95
f 35/220/96 36/221/96 32/222/96 31/223/96
f 31/223/97 32/222/97 43/78/97 42/77/97
f 27/80/98 28/79/98 24/224/98 23/225/98
f 23/225/99 24/224/99 20/74/99 19/76/99
f 91/190/100 90/189/100 96/160/100 97/159/100
f 65/213/13 111/212/13 107/204/13 50/203/13
f 121/226/101 117/218/101 135/219/101 139/227/101
f 5/228/102 6/229/102 14/230/102 13/231/102
f 13/231/103 14/230/103 8/24/103 7/23/103
f 3/232/104 4/233/104 6/229/104 5/228/104
f 1/31/105 2/30/105 4/233/105 3/232/105
f 136/183/106 139/227/106 138/234/106 137/184/106
f 138/234/107 139/227/107 135/219/107 134/210/107
f 133/180/108 132/211/108 134/210/108 135/219/108
f 131/179/109 130/235/109 132/211/109 133/180/109
f 125/236/110 124/237/110 130/235/110 131/179/110
f 123/196/111 122/202/111 126/201/111 127/215/111
f 127/215/112 126/201/112 128/238/112 129/239/112
f 103/240/113 122/202/113 123/196/113 102/241/113
f 129/239/114 128/238/114 124/237/114 125/236/114
f 118/242/115 121/226/115 136/183/115
f 107/243/116 111/244/116 129/239/116 125/236/116
f 111/244/117 109/214/117 127/215/117 129/239/117
f 112/245/118 114/208/118 132/211/118 130/235/118
f 120/246/119 137/184/119 138/234/119
f 110/247/120 106/248/120 124/237/120 128/238/120
f 108/200/121 110/247/121 128/238/121 126/201/121
f 113/178/122 107/243/122 125/236/122 131/179/122
f 116/209/123 120/246/123 138/234/123 134/210/123
f 106/248/124 112/245/124 130/235/124 124/237/124
f 95/156/125 91/155/125 97/249/125
f 94/157/126 90/150/126 86/149/126
f 73/122/127 87/153/127 95/156/127
f 95/156/128 99/161/128 73/122/128
f 51/103/129 55/107/129 37/93/129
f 54/94/130 37/93/130 55/107/130
f 38/88/131 53/42/131 52/41/131
f 46/97/132 38/88/132 52/41/132
f 68/126/133 59/112/133 72/128/133
f 78/129/134 74/136/134 68/126/134
f 71/121/135 61/106/135 57/40/135
f 79/134/136 71/121/136 77/131/136
f 89/152/137 73/122/137 79/134/137
f 88/135/138 72/128/138 86/149/138
f 137/184/139 120/246/139 119/250/139
f 136/183/140 121/226/140 139/227/140
s 1
f 145/251/141 40/252/142 141/253/143
f 34/28/144 9/27/145 142/254/146
f 143/255/147 103/256/148 102/257/149 142/258/146
f 39/259/150 144/260/151 140/261/152
f 140/262/152 142/254/146 11/263/153
f 144/264/151 145/265/141 36/221/154 35/220/155
f 143/266/147 141/267/143 12/268/156
f 10/25/157 143/255/147 142/258/146 9/26/145
f 10/22/157 33/21/158 143/266/147
f 39/269/150 40/270/142 145/265/141 144/264/151
f 36/69/154 145/251/141 33/70/158
f 144/260/151 34/71/144 140/261/152
f 142/258/146 102/257/149 11/271/153
f 103/256/148 143/255/147 12/272/156
f 142/254/146 140/262/152 34/28/144
f 34/71/144 144/260/151 35/72/155
f 33/70/158 145/251/141 141/253/143
f 143/266/147 33/21/158 141/267/143
f 12/268/156 141/267/143 37/273/159
f 141/253/143 40/252/142 37/274/159
f 140/261/152 38/275/160 39/259/150
f 11/263/153 38/276/160 140/262/152
