# Blender v2.83.5 OBJ File: ''
# www.blender.org
o pawn
v 0.140615 0.459035 0.000000
v 0.105690 0.676872 0.000000
v 0.052845 0.676872 0.091530
v 0.070308 0.459035 0.121777
v -0.052845 0.676872 0.091530
v -0.070308 0.459035 0.121777
v -0.105690 0.676872 0.000000
v -0.140616 0.459035 0.000000
v -0.188977 -0.000000 0.327318
v -0.188977 0.077699 0.327318
v -0.377955 0.077699 0.000000
v -0.377955 -0.000000 0.000000
v 0.188977 -0.000000 0.327318
v 0.188977 0.077699 0.327318
v 0.377955 -0.000000 0.000000
v 0.377955 0.077699 0.000000
v -0.176198 0.129366 0.305184
v -0.352396 0.129366 0.000000
v 0.176198 0.129366 0.305184
v 0.352396 0.129366 0.000000
v -0.143086 0.155533 0.247832
v -0.154748 0.199970 0.268031
v -0.309495 0.199970 0.000000
v -0.286172 0.155533 0.000000
v 0.143086 0.155533 0.247832
v 0.154748 0.199970 0.268031
v 0.286172 0.155533 0.000000
v 0.309495 0.199970 0.000000
v -0.141965 0.244530 0.245891
v -0.283931 0.244530 0.000000
v 0.141965 0.244530 0.245891
v 0.283931 0.244530 0.000000
v -0.108110 0.268818 0.187253
v -0.216221 0.268818 0.000000
v 0.108110 0.268818 0.187253
v 0.216221 0.268818 0.000000
v 0.125956 0.676872 0.218162
v -0.125956 0.676872 0.218162
v -0.130082 0.695470 0.225309
v 0.130082 0.695470 0.225309
v 0.110587 0.735880 0.191543
v -0.110587 0.735880 0.191543
v 0.260165 0.695470 0.000000
v 0.221174 0.735880 0.000000
v 0.132565 0.772504 0.000000
v 0.066282 0.772504 0.114805
v -0.251912 0.676872 0.000000
v 0.251912 0.676872 0.000000
v -0.260165 0.695470 0.000000
v -0.221174 0.735880 0.000000
v -0.066283 0.772504 0.114805
v -0.132074 0.772575 0.000000
v 0.132565 1.181708 0.000000
v 0.000000 1.213360 0.000000
v 0.066282 1.181708 0.114805
v 0.229609 0.858979 0.000000
v 0.265130 0.977106 0.000000
v 0.132565 0.977106 0.229609
v 0.114804 0.858979 0.198848
v 0.229609 1.095233 0.000000
v 0.114804 1.095233 0.198848
v -0.132565 0.977106 0.229609
v -0.114805 0.858979 0.198848
v -0.066283 1.181708 0.114805
v -0.114805 1.095233 0.198848
v -0.265130 0.977106 0.000000
v -0.229610 0.858979 0.000000
v -0.132565 1.181708 0.000000
v -0.229610 1.095233 0.000000
v 0.000000 -0.000000 0.000000
v 0.070308 0.459035 -0.121777
v 0.052845 0.676872 -0.091530
v -0.070308 0.459035 -0.121777
v -0.052845 0.676872 -0.091530
v -0.188977 -0.000000 -0.327318
v -0.188977 0.077699 -0.327318
v 0.188977 -0.000000 -0.327318
v 0.188977 0.077699 -0.327318
v -0.176198 0.129366 -0.305184
v 0.176198 0.129366 -0.305184
v -0.143086 0.155533 -0.247832
v -0.154748 0.199970 -0.268031
v 0.143086 0.155533 -0.247832
v 0.154748 0.199970 -0.268031
v -0.141965 0.244530 -0.245891
v 0.141965 0.244530 -0.245891
v -0.108110 0.268818 -0.187253
v 0.108110 0.268818 -0.187253
v -0.125956 0.676872 -0.218162
v 0.125956 0.676872 -0.218162
v -0.130082 0.695470 -0.225309
v -0.110587 0.735880 -0.191543
v 0.110587 0.735880 -0.191543
v 0.130082 0.695470 -0.225309
v 0.066282 0.772504 -0.114805
v -0.066283 0.772504 -0.114805
v 0.066282 1.181708 -0.114805
v 0.114804 0.858979 -0.198847
v 0.132565 0.977106 -0.229609
v 0.114804 1.095233 -0.198847
v -0.114805 0.858979 -0.198847
v -0.132565 0.977106 -0.229609
v -0.114805 1.095233 -0.198847
v -0.066283 1.181708 -0.114805
vt 0.568178 0.384079
vt 0.625081 0.497223
vt 0.488106 0.613128
vt 0.385938 0.538285
vt 0.568179 0.384079
vt 0.625081 0.497224
vt 0.488106 0.613129
vt 0.385939 0.538286
vt 0.568179 0.384079
vt 0.625082 0.497224
vt 0.488106 0.613129
vt 0.385939 0.538285
vt 0.519401 0.014536
vt 0.547500 0.047743
vt 0.057664 0.462229
vt 0.029566 0.429021
vt 0.519400 0.014536
vt 0.547499 0.047743
vt 0.057664 0.462229
vt 0.029565 0.429022
vt 0.519398 0.014537
vt 0.547497 0.047744
vt 0.057663 0.462230
vt 0.029564 0.429024
vt 0.551266 0.085780
vt 0.094554 0.472237
vt 0.551265 0.085781
vt 0.094553 0.472238
vt 0.551263 0.085781
vt 0.094553 0.472239
vt 0.531149 0.149036
vt 0.563916 0.157108
vt 0.162805 0.496518
vt 0.160266 0.462867
vt 0.531149 0.149036
vt 0.563915 0.157108
vt 0.162804 0.496518
vt 0.160266 0.462867
vt 0.531147 0.149036
vt 0.563914 0.157109
vt 0.162803 0.496519
vt 0.160265 0.462868
vt 0.565344 0.192392
vt 0.197365 0.503766
vt 0.565343 0.192392
vt 0.197364 0.503766
vt 0.565342 0.192392
vt 0.197364 0.503766
vt 0.544420 0.256645
vt 0.264195 0.493764
vt 0.544420 0.256645
vt 0.264194 0.493764
vt 0.544419 0.256645
vt 0.264194 0.493765
vt 0.765630 0.471167
vt 0.439149 0.747427
vt 0.441006 0.760467
vt 0.778183 0.475157
vt 0.771962 0.519043
vt 0.485317 0.761595
vt 0.441006 0.760467
vt 0.778184 0.475156
vt 0.771962 0.519042
vt 0.485317 0.761595
vt 0.745293 0.603970
vt 0.573487 0.749348
vt 0.765630 0.471167
vt 0.439149 0.747427
vt 0.765630 0.471166
vt 0.439149 0.747427
vt 0.441006 0.760467
vt 0.778184 0.475157
vt 0.771962 0.519043
vt 0.485317 0.761595
vt 0.745292 0.603971
vt 0.573486 0.749348
vt 0.745292 0.603970
vt 0.573954 0.749256
vt 0.920803 0.811382
vt 0.877968 0.934967
vt 0.748997 0.956760
vt 0.851788 0.602294
vt 0.918951 0.634986
vt 0.575339 0.925743
vt 0.554211 0.854097
vt 0.940079 0.706633
vt 0.642501 0.958435
vt 0.851787 0.602295
vt 0.918950 0.634988
vt 0.575337 0.925744
vt 0.554210 0.854097
vt 0.940076 0.706635
vt 0.920801 0.811384
vt 0.748994 0.956762
vt 0.642499 0.958437
vt 0.852478 0.601532
vt 0.920397 0.633519
vt 0.577267 0.924837
vt 0.555319 0.853821
vt 0.942345 0.704534
vt 0.923937 0.808726
vt 0.752372 0.954385
vt 0.645186 0.956823
vt 0.881992 0.931799
vt 0.156111 0.081886
vt 0.385938 0.538285
vt 0.488106 0.613128
vt 0.568179 0.384079
vt 0.385939 0.538286
vt 0.488106 0.613129
vt 0.625081 0.497224
vt 0.568179 0.384079
vt 0.625082 0.497224
vt 0.519401 0.014536
vt 0.547500 0.047743
vt 0.519400 0.014536
vt 0.029565 0.429022
vt 0.057664 0.462229
vt 0.547499 0.047743
vt 0.029564 0.429024
vt 0.057663 0.462230
vt 0.551266 0.085780
vt 0.094553 0.472238
vt 0.551265 0.085781
vt 0.094553 0.472239
vt 0.531149 0.149036
vt 0.563916 0.157108
vt 0.531149 0.149036
vt 0.160266 0.462867
vt 0.162804 0.496518
vt 0.563915 0.157108
vt 0.160265 0.462868
vt 0.162803 0.496519
vt 0.565344 0.192392
vt 0.197364 0.503766
vt 0.565343 0.192392
vt 0.197364 0.503766
vt 0.544420 0.256645
vt 0.264194 0.493764
vt 0.544420 0.256645
vt 0.264194 0.493765
vt 0.439149 0.747427
vt 0.765630 0.471167
vt 0.441006 0.760467
vt 0.485317 0.761595
vt 0.771962 0.519043
vt 0.778183 0.475157
vt 0.441006 0.760467
vt 0.485317 0.761595
vt 0.573487 0.749348
vt 0.765630 0.471167
vt 0.439149 0.747427
vt 0.771962 0.519043
vt 0.778184 0.475157
vt 0.573486 0.749348
vt 0.745292 0.603971
vt 0.745292 0.603970
vt 0.748997 0.956760
vt 0.554211 0.854097
vt 0.575339 0.925743
vt 0.642501 0.958435
vt 0.851787 0.602295
vt 0.554210 0.854097
vt 0.575337 0.925744
vt 0.918950 0.634988
vt 0.940076 0.706635
vt 0.642499 0.958437
vt 0.748994 0.956762
vt 0.920801 0.811384
vt 0.852478 0.601532
vt 0.920397 0.633519
vt 0.942345 0.704534
vt 0.923937 0.808726
vn 0.8578 0.1375 0.4952
vn 0.0000 0.1375 0.9905
vn -0.8578 0.1375 0.4952
vn -0.8660 0.0000 0.5000
vn 0.0000 0.0000 1.0000
vn 0.8660 0.0000 0.5000
vn -0.7961 0.3938 0.4596
vn 0.0000 0.3938 0.9192
vn 0.7961 0.3938 0.4596
vn -0.7884 -0.4138 0.4552
vn 0.0000 -0.4138 0.9104
vn 0.7884 -0.4138 0.4552
vn -0.7756 0.4450 0.4478
vn 0.0000 0.4450 0.8955
vn 0.7756 0.4450 0.4478
vn -0.3314 0.9239 0.1913
vn 0.0000 0.9239 0.3827
vn 0.3314 0.9239 0.1913
vn 0.3595 0.9098 0.2075
vn 0.0000 0.9098 0.4151
vn -0.3595 0.9098 0.2075
vn 0.0000 -1.0000 0.0000
vn 0.0000 0.6412 0.7674
vn 0.6646 0.6412 0.3837
vn 0.3730 0.9025 0.2154
vn -0.6646 0.6412 0.3837
vn 0.0000 0.9025 0.4307
vn -0.3726 0.9028 0.2148
vn 0.8084 -0.3587 0.4667
vn 0.0000 -0.3587 0.9334
vn -0.8084 -0.3587 0.4667
vn -0.8189 0.3255 0.4728
vn 0.0000 0.3255 0.9456
vn 0.8189 0.3255 0.4728
vn 0.2302 0.9640 0.1329
vn 0.8381 -0.2520 0.4839
vn 0.6210 0.6969 0.3586
vn 0.6210 -0.6969 0.3586
vn 0.8381 0.2520 0.4839
vn 0.0000 -0.2520 0.9677
vn 0.0000 0.6970 0.7171
vn 0.0000 -0.6970 0.7171
vn 0.0000 0.2520 0.9677
vn 0.0000 0.9640 0.2658
vn -0.8381 -0.2520 0.4839
vn -0.6210 0.6970 0.3586
vn -0.6206 -0.6980 0.3572
vn -0.8381 0.2520 0.4839
vn -0.2302 0.9640 0.1329
vn 0.8578 0.1375 -0.4952
vn 0.0000 0.1375 -0.9905
vn -0.8578 0.1375 -0.4952
vn -0.8660 0.0000 -0.5000
vn 0.0000 0.0000 -1.0000
vn 0.8660 0.0000 -0.5000
vn -0.7961 0.3938 -0.4596
vn 0.0000 0.3938 -0.9192
vn 0.7961 0.3938 -0.4596
vn -0.7884 -0.4138 -0.4552
vn 0.0000 -0.4138 -0.9104
vn 0.7884 -0.4138 -0.4552
vn -0.7756 0.4450 -0.4478
vn 0.0000 0.4450 -0.8955
vn 0.7756 0.4450 -0.4478
vn -0.3314 0.9239 -0.1913
vn 0.0000 0.9239 -0.3827
vn 0.3314 0.9239 -0.1913
vn 0.3595 0.9098 -0.2075
vn 0.0000 0.9098 -0.4151
vn -0.3595 0.9098 -0.2075
vn 0.0000 0.6412 -0.7674
vn 0.6646 0.6412 -0.3837
vn 0.3730 0.9025 -0.2154
vn -0.6646 0.6412 -0.3837
vn 0.0000 0.9025 -0.4307
vn -0.3726 0.9028 -0.2148
vn 0.8084 -0.3587 -0.4667
vn 0.0000 -0.3587 -0.9334
vn -0.8084 -0.3587 -0.4667
vn -0.8189 0.3255 -0.4728
vn 0.0000 0.3255 -0.9456
vn 0.8189 0.3255 -0.4728
vn 0.2302 0.9640 -0.1329
vn 0.8381 -0.2520 -0.4839
vn 0.6210 0.6969 -0.3586
vn 0.6210 -0.6969 -0.3586
vn 0.8381 0.2520 -0.4839
vn 0.0000 -0.2520 -0.9677
vn 0.0000 0.6969 -0.7171
vn 0.0000 -0.6969 -0.7171
vn 0.0000 0.2520 -0.9677
vn 0.0000 0.9640 -0.2658
vn -0.8381 -0.2520 -0.4839
vn -0.6210 0.6970 -0.3586
vn -0.6206 -0.6980 -0.3572
vn -0.8381 0.2520 -0.4839
vn -0.2302 0.9640 -0.1329
usemtl Pawn
s 1
f 1/1/1 2/2/1 3/3/1 4/4/1
f 4/5/2 3/6/2 5/7/2 6/8/2
f 6/9/3 5/10/3 7/11/3 8/12/3
f 9/13/4 10/14/4 11/15/4 12/16/4
f 13/17/5 14/18/5 10/19/5 9/20/5
f 15/21/6 16/22/6 14/23/6 13/24/6
f 10/14/7 17/25/7 18/26/7 11/15/7
f 14/18/8 19/27/8 17/28/8 10/19/8
f 16/22/9 20/29/9 19/30/9 14/23/9
f 21/31/10 22/32/10 23/33/10 24/34/10
f 25/35/11 26/36/11 22/37/11 21/38/11
f 27/39/12 28/40/12 26/41/12 25/42/12
f 22/32/13 29/43/13 30/44/13 23/33/13
f 26/36/14 31/45/14 29/46/14 22/37/14
f 28/40/15 32/47/15 31/48/15 26/41/15
f 29/43/16 33/49/16 34/50/16 30/44/16
f 31/45/17 35/51/17 33/52/17 29/46/17
f 32/47/18 36/53/18 35/54/18 31/48/18
f 20/29/19 27/39/19 25/42/19 19/30/19
f 19/27/20 25/35/20 21/38/20 17/28/20
f 17/25/21 21/31/21 24/34/21 18/26/21
f 5/7/22 3/6/22 37/55/22 38/56/22
f 39/57/23 40/58/23 41/59/23 42/60/23
f 40/61/24 43/62/24 44/63/24 41/64/24
f 41/64/25 44/63/25 45/65/25 46/66/25
f 7/11/22 5/10/22 38/67/22 47/68/22
f 3/3/22 2/2/22 48/69/22 37/70/22
f 49/71/26 39/72/26 42/73/26 50/74/26
f 42/60/27 41/59/27 46/75/27 51/76/27
f 50/74/28 42/73/28 51/77/28 52/78/28
f 37/70/29 48/69/29 43/62/29 40/61/29
f 38/56/30 37/55/30 40/58/30 39/57/30
f 47/68/31 38/67/31 39/72/31 49/71/31
f 33/49/32 6/9/32 8/12/32 34/50/32
f 35/51/33 4/5/33 6/8/33 33/52/33
f 36/53/34 1/1/34 4/4/34 35/54/34
f 53/79/35 54/80/35 55/81/35
f 56/82/36 57/83/36 58/84/36 59/85/36
f 60/86/37 53/79/37 55/81/37 61/87/37
f 45/65/38 56/82/38 59/85/38 46/66/38
f 57/83/39 60/86/39 61/87/39 58/84/39
f 59/88/40 58/89/40 62/90/40 63/91/40
f 61/92/41 55/93/41 64/94/41 65/95/41
f 46/75/42 59/88/42 63/91/42 51/76/42
f 58/89/43 61/92/43 65/95/43 62/90/43
f 55/93/44 54/80/44 64/94/44
f 63/96/45 62/97/45 66/98/45 67/99/45
f 65/100/46 64/101/46 68/102/46 69/103/46
f 51/77/47 63/96/47 67/99/47 52/78/47
f 62/97/48 65/100/48 69/103/48 66/98/48
f 64/101/49 54/104/49 68/102/49
f 12/16/22 70/105/22 9/13/22
f 9/20/22 70/105/22 13/17/22
f 15/21/22 13/24/22 70/105/22
f 1/1/50 71/106/50 72/107/50 2/2/50
f 71/108/51 73/109/51 74/110/51 72/111/51
f 73/112/52 8/12/52 7/11/52 74/113/52
f 75/114/53 12/16/53 11/15/53 76/115/53
f 77/116/54 75/117/54 76/118/54 78/119/54
f 15/21/55 77/120/55 78/121/55 16/22/55
f 76/115/56 11/15/56 18/26/56 79/122/56
f 78/119/57 76/118/57 79/123/57 80/124/57
f 16/22/58 78/121/58 80/125/58 20/29/58
f 81/126/59 24/34/59 23/33/59 82/127/59
f 83/128/60 81/129/60 82/130/60 84/131/60
f 27/39/61 83/132/61 84/133/61 28/40/61
f 82/127/62 23/33/62 30/44/62 85/134/62
f 84/131/63 82/130/63 85/135/63 86/136/63
f 28/40/64 84/133/64 86/137/64 32/47/64
f 85/134/65 30/44/65 34/50/65 87/138/65
f 86/136/66 85/135/66 87/139/66 88/140/66
f 32/47/67 86/137/67 88/141/67 36/53/67
f 20/29/68 80/125/68 83/132/68 27/39/68
f 80/124/69 79/123/69 81/129/69 83/128/69
f 79/122/70 18/26/70 24/34/70 81/126/70
f 74/110/22 89/142/22 90/143/22 72/111/22
f 91/144/71 92/145/71 93/146/71 94/147/71
f 94/148/72 93/149/72 44/63/72 43/62/72
f 93/149/73 95/150/73 45/65/73 44/63/73
f 7/11/22 47/68/22 89/151/22 74/113/22
f 72/107/22 90/152/22 48/69/22 2/2/22
f 49/71/74 50/74/74 92/153/74 91/154/74
f 92/145/75 96/155/75 95/156/75 93/146/75
f 50/74/76 52/78/76 96/157/76 92/153/76
f 90/152/77 94/148/77 43/62/77 48/69/77
f 89/142/78 91/144/78 94/147/78 90/143/78
f 47/68/79 49/71/79 91/154/79 89/151/79
f 87/138/80 34/50/80 8/12/80 73/112/80
f 88/140/81 87/139/81 73/109/81 71/108/81
f 36/53/82 88/141/82 71/106/82 1/1/82
f 53/79/83 97/158/83 54/80/83
f 56/82/84 98/159/84 99/160/84 57/83/84
f 60/86/85 100/161/85 97/158/85 53/79/85
f 45/65/86 95/150/86 98/159/86 56/82/86
f 57/83/87 99/160/87 100/161/87 60/86/87
f 98/162/88 101/163/88 102/164/88 99/165/88
f 100/166/89 103/167/89 104/168/89 97/169/89
f 95/156/90 96/155/90 101/163/90 98/162/90
f 99/165/91 102/164/91 103/167/91 100/166/91
f 97/169/92 104/168/92 54/80/92
f 101/170/93 67/99/93 66/98/93 102/171/93
f 103/172/94 69/103/94 68/102/94 104/173/94
f 96/157/95 52/78/95 67/99/95 101/170/95
f 102/171/96 66/98/96 69/103/96 103/172/96
f 104/173/97 68/102/97 54/104/97
f 12/16/22 75/114/22 70/105/22
f 75/117/22 77/116/22 70/105/22
f 15/21/22 70/105/22 77/120/22
